/* XPM */
static char *a04b79caf8484cb0fe2d83656ed9a01dzGh8rhzzQKJnfm4X[] = {
/* columns rows colors chars-per-pixel */
"61 61 244 2 ",
"   c #4B6D3B",
".  c #616545",
"X  c #787C5A",
"o  c #35903B",
"O  c #36963C",
"+  c #3B943E",
"@  c #37A03F",
"#  c #50993C",
"$  c #58A93E",
"%  c #69A93C",
"&  c #79A93B",
"*  c #3D9643",
"=  c #588C4A",
"-  c #439444",
";  c #4B9545",
":  c #449C45",
">  c #4B9B44",
",  c #4D954B",
"<  c #469949",
"1  c #4C9B4B",
"2  c #569A44",
"3  c #54944C",
"4  c #5B954D",
"5  c #549B4C",
"6  c #5B9B4D",
"7  c #559552",
"8  c #5C9552",
"9  c #569B51",
"0  c #5C9C52",
"q  c #5E9C59",
"w  c #648D4F",
"e  c #639A44",
"r  c #6B9A44",
"t  c #63944D",
"y  c #6B944D",
"u  c #639B4D",
"i  c #6A9B4C",
"p  c #759B4B",
"a  c #7D885A",
"s  c #639552",
"d  c #6C9553",
"f  c #649C53",
"g  c #6B9C53",
"h  c #649759",
"j  c #649C59",
"k  c #6B9C59",
"l  c #739554",
"z  c #739C55",
"x  c #7A9856",
"c  c #7A9D54",
"v  c #739E59",
"b  c #47A648",
"n  c #4CA44B",
"m  c #4DAC4D",
"M  c #54A34D",
"N  c #5BA44D",
"B  c #57A949",
"V  c #45B149",
"C  c #4BB24B",
"Z  c #53B34D",
"A  c #4EA651",
"S  c #55A452",
"D  c #5DA353",
"F  c #54AC51",
"G  c #5BAB53",
"H  c #5DA459",
"J  c #57A95A",
"K  c #5CAC5A",
"L  c #4CB352",
"P  c #54B453",
"I  c #5CB557",
"U  c #69A847",
"Y  c #63A34D",
"T  c #6CA44C",
"R  c #77A644",
"E  c #7AAC44",
"W  c #73A44C",
"Q  c #7BA44D",
"!  c #75AB4C",
"~  c #7BAB4C",
"^  c #64B34B",
"/  c #77B34A",
"(  c #63A354",
")  c #6CA354",
"_  c #63AA54",
"`  c #6BAB55",
"'  c #64A45A",
"]  c #6CA45A",
"[  c #65AB5B",
"{  c #6CAB5B",
"}  c #74A355",
"|  c #7BA454",
" . c #73AB54",
".. c #7CAA53",
"X. c #73A45A",
"o. c #7BA45A",
"O. c #73AB5B",
"+. c #7CAC5C",
"@. c #63B255",
"#. c #64B35C",
"$. c #6AB658",
"%. c #6CB35C",
"&. c #73B354",
"*. c #7BB156",
"=. c #74B35C",
"-. c #7BB35D",
";. c #74B95D",
":. c #7ABA59",
">. c #66AA61",
",. c #6CAC62",
"<. c #7AA660",
"1. c #73AD61",
"2. c #7AAD61",
"3. c #6DB362",
"4. c #69B761",
"5. c #74B463",
"6. c #7BB362",
"7. c #75B964",
"8. c #7DB963",
"9. c #7BB86A",
"0. c #889D3F",
"q. c #98B42E",
"w. c #86AA3C",
"e. c #95AB3A",
"r. c #89B539",
"t. c #99B539",
"y. c #9CB43B",
"u. c #B5BA2C",
"i. c #A9B630",
"p. c #A6B838",
"a. c #B3BB31",
"s. c #BABA38",
"d. c #B8C91F",
"f. c #9CC438",
"g. c #BBC726",
"h. c #AAC339",
"j. c #B7C636",
"k. c #B1CB34",
"l. c #CACC1D",
"z. c #CDD319",
"x. c #D6DA1A",
"c. c #DDE10D",
"v. c #DEE213",
"b. c #E9E809",
"n. c #F0EE08",
"m. c #F3F204",
"M. c #F9F602",
"N. c #FCFA02",
"B. c #F3F10C",
"V. c #E5E513",
"C. c #EAE915",
"Z. c #FCFB1A",
"A. c #C7CB29",
"S. c #CAD327",
"D. c #D4DA26",
"F. c #CAD136",
"G. c #E4E826",
"H. c #FAF928",
"J. c #E7E938",
"K. c #F8F637",
"L. c #879A4F",
"P. c #859C55",
"I. c #839C59",
"U. c #88A745",
"Y. c #8BAB43",
"T. c #83A44C",
"R. c #83AA4C",
"E. c #8CAC4B",
"W. c #93AC42",
"Q. c #94AC48",
"!. c #86B649",
"~. c #8CBA4B",
"^. c #97B645",
"/. c #9CBA43",
"(. c #93B44C",
"). c #93BC4D",
"_. c #86A455",
"`. c #84AC55",
"'. c #8BAB54",
"]. c #83A45B",
"[. c #84AB5C",
"{. c #8BAC5D",
"}. c #93A85A",
"|. c #84B453",
" X c #8CB354",
".X c #83B35C",
"XX c #87B85A",
"oX c #94B957",
"OX c #A4B946",
"+X c #ACBC51",
"@X c #848C64",
"#X c #8D9669",
"$X c #92976C",
"%X c #85A862",
"&X c #83AD62",
"*X c #95AD62",
"=X c #82B363",
"-X c #8AB464",
";X c #87B967",
":X c #96B96D",
">X c #8DC14F",
",X c #9CC54A",
"<X c #9AC353",
"1X c #A8C647",
"2X c #B6C845",
"3X c #BDD347",
"4X c #A9CA54",
"5X c #B4CE53",
"6X c #ADD157",
"7X c #B6D256",
"8X c #8BC46E",
"9X c #97C262",
"0X c #C6D847",
"qX c #C6DA59",
"wX c #D3DE54",
"eX c #D9E646",
"rX c #CCE158",
"tX c #D5E256",
"yX c #FDFE4A",
"uX c #EEF25B",
"iX c #D2DD64",
"pX c #DBE767",
"aX c #DCE675",
"sX c #E3E966",
"dX c #EBF165",
"fX c #FCFC64",
"gX c #F7F669",
"hX c #E7ED77",
"jX c #F9F873",
"kX c #EAF083",
"lX c #E8F08A",
"zX c #EAF18A",
"xX c #F5F68C",
"cX c #FCFC94",
"vX c #F4F69B",
"bX c #FCFCA3",
"nX c #F8F9A9",
"mX c #F9FAB9",
"MX c #FCFBC3",
"NX c #FBFCCA",
"BX c #FBFDD3",
"VX c #FCFCDA",
"CX c #FCFCE5",
"ZX c #FCFCED",
/* pixels */
"2.c ` oX] 8 m %.O.} -.-.| ' 1.w ,.;X7 - y D =.5 K 0 z *.] ' { Y 1 ' 2.z &.;X0 9 F 7.( _.;.[.g O.k s 6.2.; = s [ &.1 >.4 } ",
"{ o.( | h { l ` %.O.d ) =X;XX.' I +.q k l 0 O.1.- ( k =.G ( 6.=.) X.O.o.) T.s O.d ` 7.d g ] ;X=X<.K $.X.j k l H 5.] * ] ) ",
"0 w } v d 2.g 3 +. .l z [ =.X.;.G Y 7 ;X8 D H ;X' 9 3 oX.Xg `.-X6.( t y } k d =X4 0 .X( x ] %.} 5.%._ 6 { 2.3 D >.9.9 8 f ",
"8 %.z l 4 =X{ 6 f %.( X.&X .%.%.f g 5 L D =XD [ 7.f 4 f v +.XX..( j q %.x d f ;X9 u ( %.s =X| O.%.G g f n m  .-.S ` ;.8 4 ",
"3 6.#.x y t , 0 j 3 ; f f ] [ n 0 ( j { D G ;Xf 1.[ ] k S %. .g ].l N 6.` l t 0 : ' j - 4 D f ,.F 5 j D ] ] 9 %.-Xq 5.[ X.",
"[.s j m X.h _ 6 - A H = 4 , : 7 7 ( ' ] o.A _ o.] { ;.D K K 3 g =X=Xc q j N v 8 _ 4 * K 7 4 8 < 1 7 9 ( ( O.O.A ` | ] { =.",
"g =X( 3 ` 1 4 8 J 7.' 3 o.o.5 ] XX[ < ` f s +.O.g ) [.e # , g O.:.+.| -.9 3 ` > s 8 P 9.- ' ].g 9 +.-.S M ( s k -.X.j X.&X",
"g O.G , +.; 3 1.,.1.{ H 8 k o.( [.* H ' ] 6.} d m $.&.] ` T ` ;.) u } { D 6 +.o s 5.,.<.' q 8 o.) ..) 1 ' ] O.+.k s C &.` ",
"P t + 0 ,.] , O.s ) +.] ] n :.|.w - # : z 8.( g ` [ f u ! oX|./ } Y G e # q $.j < &X; .X] 2.5 _ =X..3 # # , X.6.0 ] K H 6 ",
"=.#.s 7 ] d O.[ f X.[.=.Z D 6.l d h - d X.-X}.[.g _.| M / ~.~.|.l } :.$.w 7 } k 1.( h O.[.$.b %.O.l d 3 3 l 2.-X_.o.d _.j ",
"v $.=X4 p ' ,.f M 7.{ n H O.-.[.c &X7.x 4 ].} XX| '.% U |.,X4XoX..c } :.+.e c ' %.= P 7.D A { O.=X].<.&XO.d g `.o.-XX.[.* ",
"].f F V X.=.+.G 4.5.O.+.@.- 6 =X6.2.%.t 8 {.*.u e :X-.Y |.5X7XoX|.`.'.Y B Z o.=.<.P 9.{ o.;.M + k -.6.2.$.8 d [.` 4 f 8XK ",
"( X.V D > ( f O.5.[ ( ] ( + H @.+.) 5.m 3  .} 2 *.-.W U.6XqX7X4X X|.W ! C f 5 ) f -.%.` f O.> 3 I $.} O.3.n u O.( 1 5.%.0 ",
"( h #.1 3 4 i f ( ( H ( s 5 C G f h &XA i .Xg ` &.~ ! ^.3XqXqX<XY.& ! W ^ # 4 6 d f ( H D j 4 m C ( s X.O.n } +.0 [ ` j H ",
"3 3 @.n 8 < u d 1 6 O.( > Z { f ] 1.1 6 Y z e e r W Q.y.3XtXrX2X).L.r U &.M 8 ; g k : d %.4 b G ) j O.( 5 0 ] t 3 3 0 d | ",
"4 f ].N { D 3 n #.) ( 0 d [.O.] 2.` < D 6 } ) L. XoX).h.k.eXeXk.f.t.p T.E.U &.5 3 b 5.( ( 8 o.*.) +.2.D 1 0 i ) f P.6.8.c ",
"&.6 d u ;Xc {. .=.1.q - 2 o.g z } 5.{ L ) | W R.U.<X1Xh.0XpXtX3X1X,X~.r U.W ;Xp }.G 8.{ 6 + g z g z O.1.K F } ) g }  .;X=X",
";X` = %.) ]..X=X} ( ' e 5 6 u { g q 1.I ) i U R U.w.t.h.qXlXlX7Xy.OX/.Y.& |.Q }..X[.( ' ) 3 6 u ( ] j ' 4.I j u N u g } %.",
"6.;Xq ;X8 +.5.' 6 H ' k ) , D [ &X9 9 { d  .*.R W.w.p.k.qXzXlXiXj.p.+XOXT.oX6 .X3.6 u [ q v 5 8 S 6.<.1 D ] j [ { s k < O.",
"v { +.O.8 ( M , 0 z 8 3 o.6.9 6 5.V D f }.:.% E (.y.h.d.tXzXzXtXF.a.p.^.(.U.i  .1 5 j v 3 s -.{ 5 { @.m 0 c *X#.; S ,.G 0 ",
"s v z f < 5 _ ) 1.f ; ( -.-.g 6 ] $.B f =XW % +X^.p.A.x.sXvXvXsXD.A.i.OXW.E $ ` ` ) -.5 3 ` -.+.f f ` @.S j 2.M G :XL ,.o.",
"( }.s k ' D D g O.G S {  .} ] *.I.XXB 2 `.U.~.+Xp.u.A.c.uXnXnXdXG.z.g.s.e.Y.U.T U } *.n ( {  .z ` | ].=.: 6 +.] 4.-X9 d X.",
"6.d f ` { X.1 k X.=.#.G +.+.{ ;.Q `. .W U.w.w.s.i.A.z.b.dXmXMXdXG.x.S.u.p.^.(.U.e `.| .XP ` +.} %.O...1.' h l 0 D | j k - ",
"X.XXX.1 u ) t N D ] &.G T Y ` XXW ~ |.U.+XY.y.u.A.z.c.n.gXMXNXjXG.b.x.A.u.q.e.e.& E T `./ Y  .N =.=.) ) ] X.%X7 f X.6.D * ",
"8 oX0 { g u k _ ` z ( ( c T.e ~ (.|.& W.+XOXi.A.D.V.n.M.fXMXMXjXZ.m.V.x.A.j.i.e.W.~.Q.R ! W T.r Y | +._ 6 | -X{ f ] _ 5 ] ",
"] +.4 =X3.f } ..].o..X! p E.E.!./.& Y.y.i.F.A.z.V.n.M.N.fXMXNXfXZ.N.n.C.x.S.j.p.p.OXQ.E.~.p R.E.W '...B _ ] o.=X%.h y D @.",
"( 9 X.f @.%.) c T &.-.~ ! ~. X& ^.r.p.s.u.A.D.V.b.N.N.N.fXMXNXjXZ.N.N.m.V.x.S.g.a.p.r.).(.! / >X! ! ~ Y O.} ( [.{ u x ;.@ ",
"0 o.O.n 9 ` *.c ` &.`.&.:.!.E & e.p.j.F.S.x.V.b.m.N.Z.yXcXNXBXcXyXH.N.N.B.x.x.x.A.a.h././.>X>X/ N Y T ~  X[.} c 9 H 4 6., ",
"v x O.{ - _ XX+.*...|.>X).f.r.1X1X3XF.F.J.J.J.K.H.H.yXcXNXCXCXNXcXfXH.H.H.J.J.J.J.F.2X+X2X1X,X& E c .. X'.o.| N M 2.3 9 < ",
"| ` >.,.9 [ *.|. X~.<X4X6X0Xk.rXiXaXsXhXhXxXcXcXcXcXmXNXCXZXZXCXNXmXcXcXcXcXxXkXhXhXaXiX0X0X3X5X6X4X).).~ ..p f D -X8 4 } ",
"( #.5 ] [ ) Q  X<X4X5XqXqXtXeXdXkXvXvXnXmXNXVXVXBXBXVXCXZXZXZXZXCXVXVXVXVXVXBXmXnXvXvXkXsXeXtXtXiXqX1X>X!.:.+.f j &X5 { {.",
"#.J S ,.[ X.[.R.(.~.<X6XqX0XF.qXpXaXhXhXxXvXbXbXbXbXmXBXCXZXZXCXVXmXbXbXbXbXvXlXlXhXaXpXtXwX0X7X4X4X).E U *.;X[ k e D :.z ",
"%.d { 8.O.0 %.=.Q Q |.oXOX/.OXp.2X3Xj.F.J.eXK.K.K.K.fXcXBXCXCXNXbXfXK.K.K.K.J.J.eX0X2X2X2X2XOX(.R.| `.Q 2 y } %.{ * { _ i ",
"1.o.'  Xg ( ( &.:._._.|. X).(.Y.,Xk.p.g.z.x.V.n.m.N.Z.yXcXBXBXcXyXZ.N.N.m.m.x.z.A.u.p.p././.). X..! .X+.6 t p ( =.0 M h } ",
"] z ) | d O.c u *...p Q XXoXE.~.!.t.e.j.g.l.x.b.m.M.N.Z.jXNXNXfXZ.N.N.B.b.x.z.A.u.q.p.W.Y.R.<X X*.&.&.T } ].d D ,.6.- ' g ",
"8 ( z l s =X) 4  .&.| T.|.R.|.>XY.w.w.1Xi.u.g.D.V.B.N.N.fXMXNXjXZ.N.B.C.x.A.u.+Xe.e./.!.U.E.|.R.XX&.T u _ &.D  .H 5.{ 4 u ",
"3 5.{ l t ..( N ) Y u } `...:.E R U.U.r.^.p.s.g.D.V.m.m.fXmXMXjXZ.m.b.x.A.u.i.p.w.Y.U.E p  XT.+.$.Y T i N G ( -.{ ( 6.D s ",
"( X.K i l 8 5 0 8 5 6 e e Y Y B r E ~ (.Y.r.2Xa.A.D.V.m.gXMXMXjXC.b.x.A.j.a.e.w.& R r B r e r ( N 5 u ( ] O.( G =Xf { %.O.",
"o.] h n { 0 ( t > #.[ 4 g u > i } ` U ! Q.w.y.s.a.A.V.b.dXmXMXhXG.v.A.u.p.w.^.& ~ r $ 8.4 s g 2 5 z ] ( D } X.S O.X.g O.6.",
"g =X( 3  .> 3 j #.5.] 3 X.o.) ) oX( B  .T E.^.y.q.j.S.c.uXnXmXdXG.x.A.+Xe.w.!.# y ) %.=XM ' o.} 6 `.+.A S ( f o.+.) D { +.",
"( f M 7 2.6 , 5.,.] O.' q f -. .| + D 0 o.XXY.Y.r.h.d.x.dXvXvXsXS.g.h.e.w.R oX# 0 =Xj ..{ j 7 O.O.+.u - 0 ' 2.6.i f P [ D ",
"I f ; 8 [ X.0 O.u ) +.O._ n 8.`.w 3 + 2 v oXE.Q.^.p.i.d.tXzXxXtXF.g.f.e.& ~ ..} N 2., -.X.6.1 @.XXz 4 ; - 6 o.=X) ] ' ] 0 ",
"O.4.O.3 d k O.( 0 { +.` F { +.z z o.D x } }.(.(.Y.p.p.f.wXlXzXpXj.p.OX).U.r c k ;.5 ( =.+.I S &.o.z c ] f x X.&X].[.l '.0 ",
"v ` -.M l { %.f G 7.%.N ' ) O.&X[.=X7.d 4 '...'.U.+Xt.f.7XkXlXrX2Xt.W.!.~.r T.$.O.8 #.7.D D { ( +.&X&X=XO.t y [.{ o.) ;X: ",
"[.g V V ] &.X.#.7.5.X.2._ o 1 &.:.X.=.5 t [...$ R <X).p.3XsXsX7X1X/.W.E $ ^  .&.X.$.6.{ o.6.> O ( ;.+.O.#.5 g .X) - ' 8X[ ",
"D ] Z 9 - 6 4 o.` ( D f ( - K P ] k 2.L 4 =.p U |./ E p.0XeXeX3Xy.^.E ~ ^ u # ( 6 +._ ( 5 ] ; 6 P @.g X.%.n f { h N ;.H 8 ",
"D 8 %.: 8 3 f f 3 ( { D 8 B P D f j o.5 i +.i ) T Q Y.y.3XeXrXk.e.w.W W &.# t 3 g 8 6 ' [ 8 9 Z F ( h X.) 5 ) | 8 ' D k ) ",
"3 9 ` M f 1 6 f M f ) H 5 @.X.g 1.=.* 6 ( i t r W Q (.W.5XrXqX6X~.U.e W ! B f 1 f f n g %.8 B { k ] 2.G < f g u 3 t f X...",
"u k I.g 5.) g b %.O.6 3 z {. .X.+.` S K 8 | ) L. X9XXXE.^.7X7X,X/ XXW c L.Y =Xu u b 8.( 6 3 _.+.} O.=.( D J g } ) P.;X8Xo.",
"8.5 = ( .XI.}..XO.1.D ; > g t ] ] ,.1.L ] ) ) T i  XXX X(.7X4X/ } *.XX2 r  .XXP.:XO.+.[ 6 * 6 f g l ] 1.#.P ) g f ( u .X8.",
"-X-.0 6.8 [.7.+.g D ) ) 0 6 0 { X.7 ] 4.0 Y ^ 6 i u ` &. X4X1XE U ..XX*.f -.s -X%.[.4 ' z f 9 4 _ { j 8 { 3.0 D G 4 k 3 ` ",
"1.;X] =X0 O.3.1 5 ( 0 h X.9 D G -Xn , ' z %.O.g o.2  . .T !.>XXX.X} =X-X] ;X3 +.[ * ( [ 7 v ( ( A 2.2.b 9 z X.%.X.s ] 1 O.",
"l f +.) 3 D > 3 ' z 4 3 +.-X6 4 @.L H s *X3.+ _ #.O.) 2 Y ~ ~ &.&.p l } .Xu 3 ( - j ] l 3 4 ;XO.4 u ^ Z D x *XK * #.>.[ 8 ",
"4 ].d f 1 9 O.O.+.D < ] ;. .} ( z -.Z 8 ,.s P :XI g _.=X` T.T.{ ;.Y i ].s 0 n 9 O.o.5.: 3 ;.=.} ` k o.%.n H ,.9 4.:XV v %X",
"%.}.4 j ,.' 1 4 ] _ I [ O.z ) 6.I.=XS - o.z 3.6.) g u +..X-.r < q ( `.P.3 ,.{ j < d ` K K @.} g %.+.%XO.: 8 o.] 3.+.0 d 0 ",
"&X8 ` _ ` o.3 ] v 5.4.n O.O.>.4.) ` ,.k x 7 - X.k ] ; 5 |.-X{ - + ` 2.8 ) _ ) X.< 2.f ;XL ( +.] ,.{ ) { ,.v d 3 5 o.k j + ",
"s 9Xo., e f s B n h ] K 8 5 M 5.j _ ( k :X' g ] ;X_ 1 Y z o.-XO.) &X} :Xj 1 t Y s V 9 f [ D f ; [ ,.( ( ( o.-XH k X.;Xn 1 ",
"0 XX5 9.X.s k %.2.X.( D x I.3 i _.>.b g &X=XS ' 3 1 O.O.} ].-Xo.) O.T  X1 9.k t X.%.%Xj ( D I.g 3 | +.J 5 z &X6.M ' 1 3 1.",
"` j s ].$._ g | X.X.=X] n -.+.) `.b [ ] 8 -.;X( x } m O { ;..X+.3 ( { 0 k &XI g z ].v 2.-X5 _ .XO.`.T n { ' ( 6.9.i x ) V ",
"6 D 5.< G =.) k 6 I ,.' %.5.[ n ) ) ( %XD I.' 0 t 6.5 K I @.} k [ P u ' 1.* %.=.( d b 4.j #.=.%.S N ` ( X.o.) #XD 6 f =X* ",
"q P. .D 3 ( =Xo.{ O.+.;.@.N - q 8 _ {.-.+.' 6 [ 6 ( j ; < 3 w X @X#X$X@Xa a #X#X$X@X#X#X#XX .     X a X X X X @X@X    { w "
};
