/* XPM */
static char *_2daeb77a6214466b6341db4fb0cbd61evZSfrALuYae7wf7[] = {
/* columns rows colors chars-per-pixel */
"61 61 147 2 ",
"   c None",
".  c #EC7D36",
"X  c #EC7F38",
"o  c #ED8237",
"O  c #EF8937",
"+  c #EE853A",
"@  c #EE8A3C",
"#  c #F0853A",
"$  c #F8873B",
"%  c #F28C3D",
"&  c #FC8C3D",
"*  c #EF903E",
"=  c #F1933E",
"-  c #FD933F",
";  c #F29A3E",
":  c #F5A43E",
">  c #F6A93F",
",  c #EF8D40",
"<  c #F48F41",
"1  c #F88E41",
"2  c #F19441",
"3  c #FE9341",
"4  c #F39D41",
"5  c #FC9C43",
"6  c #F4A442",
"7  c #FDA444",
"8  c #F7AD44",
"9  c #F9AE44",
"0  c #F7AE49",
"q  c #FEAD48",
"w  c #F7B047",
"e  c #F8B146",
"r  c #FFB047",
"t  c #FCB247",
"y  c #FEB246",
"u  c #FFB346",
"i  c #FFB347",
"p  c #FFB445",
"a  c #FFB645",
"s  c #FFB446",
"d  c #FFB546",
"f  c #FFB447",
"g  c #FFB647",
"h  c #FCB246",
"j  c #FFB847",
"k  c #F7B048",
"l  c #F7B148",
"z  c #F7B149",
"x  c #F7B24A",
"c  c #F7B04C",
"v  c #F7B149",
"b  c #F8B048",
"n  c #F9B148",
"m  c #F8B248",
"M  c #F9B248",
"N  c #F8B249",
"B  c #F8B349",
"V  c #FBB249",
"C  c #F8B24A",
"Z  c #F8B34A",
"A  c #F9B34A",
"S  c #FDB448",
"D  c #FFB548",
"F  c #FFB549",
"G  c #FFB648",
"H  c #FFB748",
"J  c #FFB649",
"K  c #FFB749",
"L  c #FAB349",
"P  c #FFB848",
"I  c #FFBA49",
"U  c #FFB94A",
"Y  c #FFB84B",
"T  c #FFBA4A",
"R  c #FFBA4B",
"E  c #FFBB4B",
"W  c #FFBC4B",
"Q  c #FFBE4A",
"!  c #FFBA4C",
"~  c #FFBA4A",
"^  c #F7B251",
"/  c #F7B351",
"(  c #F7B352",
")  c #F7B354",
"_  c #F7B554",
"`  c #F7B555",
"'  c #F7B656",
"]  c #F7B657",
"[  c #F7B454",
"{  c #F8B451",
"}  c #F8B553",
"|  c #F9B555",
" . c #F8B757",
".. c #F9B554",
"X. c #FFBB54",
"o. c #F7B658",
"O. c #F7B65A",
"+. c #F7B75A",
"@. c #F7B75C",
"#. c #F7B659",
"$. c #F8B759",
"%. c #F8B75A",
"&. c #F7B85D",
"*. c #F7B85F",
"=. c #F7B85E",
"-. c #F8B85B",
";. c #FFBE59",
":. c #F8B95D",
">. c #F8B85E",
",. c #F8B95F",
"<. c #F8BA5F",
"1. c #F9B95C",
"2. c #F7BA61",
"3. c #F8BA60",
"4. c #F8BA61",
"5. c #F8BB61",
"6. c #F8BA62",
"7. c #F8BB62",
"8. c #F8BB63",
"9. c #F8BC63",
"0. c #F9BB64",
"q. c #F8BC64",
"w. c #F8BC65",
"e. c #F8BD65",
"r. c #FABD64",
"t. c #FBBD64",
"y. c #F8BD67",
"u. c #F9BD67",
"i. c #F8BE66",
"p. c #F8BE67",
"a. c #F8BC64",
"s. c #F8BE68",
"d. c #F9BF68",
"f. c #F8BF69",
"g. c #F9BF68",
"h. c #FFC14D",
"j. c #FFC263",
"k. c #FFC565",
"l. c #FFC264",
"z. c #F8C06A",
"x. c #F9C06A",
"c. c #FFC468",
"v. c #FDC36A",
"b. c #FFC969",
"n. c #FFC96B",
"m. c #FFCA6D",
"M. c #FFCE71",
/* pixels */
"                                                                                                                          ",
"                                                                                                                          ",
"                                                                                                                          ",
"                                                      8 0 g F F E 8 8                                                     ",
"                                                    8 W 9 8 8 w 8 0 g &.                                                  ",
"                                                    j w > 8 8 8 8 8 8 n.                                                  ",
"                                                  : ;./ > 8 8 8 8 8 8 c.t.                                                ",
"                                                  8 j.' > 8 8 8 8 8 9 @. .                                                ",
"                                                  0 k.2.w 8 8 8 w 8 8 > g                                                 ",
"                                                    m.w.&.2.4.) 8 w 8 8 g 8                                               ",
"                      N e N N N 0 0 8 8 V .. .-.4.4.d.t.0.2.+.c 8 w 8 8 8 g t g F E g E V % % % @ + = = *                 ",
"                9 5 7 W ! F F t e e 8 9 0 9.z.4.t.t.4.4.t.&.w 8 w 8 w 8 > 0 > > 8 w 9 0 0 : + # % # % % & - 2             ",
"              N 7 + 2 0 0 0 v N e 8 8 8 > w ' -.9.w.4.2.w.w.&.' 8 8 8 8 8 8 8 8 8 6 2 = @ 2 @ @ , @ @ @ = 8 8             ",
"              8 % , @ 8 w 9 w N w 8 9 0 8 8 > 0 2.0.4.w.&.2.s.d.{ 8 8 8 8 8 8 8 w 8 4 + + + o @ , @ o , @ 7 e             ",
"              6 + @ @ 6 8 w 8 w N N w B w 8 8 2.w.{ +.d. .w { / 8 8 8 8 8 8 8 8 8 8 N 8 4 = + # + @ + + + # =             ",
"              @ % @ @ 6 e 8 4 2 6 B v N e 8 8 &.+.> ' z.' w 8 8 8 6 > 8 8 8 8 8 8 8 8 0 w 4 + + + @ @ 2 @ + +             ",
"              % 3 @ < 0 7 < & 1 5 E ! F j E E E E t 9 &./ 8 w 8 8 > 8 8 8 8 8 F E F g j V & 3 7 5 & 3 t 9 q ;             ",
"                , @ < 2 + @ @ % 6 w v w 0 0 e 8 8 > g 0 8 w 8 8 8 8 8 8 0 8 N w 8 8 8 9 4     e 6                         ",
"                                                    0 e 8 8 B v v w 8 8 8 g N                                             ",
"                                                    9 e 8 8 8 0 v v 8 8 8 e e e 8 w 9 0 8 e                               ",
"                            = > 0 8 9 8 > 8 8 0 8 p 9 e v 8 + , 8 v > 8 e 8 9 E W ! p g E E E j g 9 8                     ",
"                      + % & & 7 E p p p 9 > t 9 9 8 8 0 N 6 + + @ > 8 w 6 % + @ 0 8 8 8 8 8 8 w 0 9 F g                   ",
"                    + & + + + + ; 8 8 8 9 8 9 8 > 8 8 0 8 8 + + + 6 0 = + @ + = > 9 8 8 8 w 8 8 8 8 8 E 0                 ",
"                  . & + o . o @ + 6 8 8 > 9 8 8 w w 8 8 8 w @ + @ 2 = + @ @ % 0 9 t 9 9 8 w w 8 > 0  .8 >                 ",
"                  + % O > = = = + 2 E E E g p 0 6 6 6 6 6 8 ; + + @ @ , , + q B 8 8 8 E 8 8 8 w 8 c s.2.;.                ",
"                  % # + 6 e 9 0 8 8 w       8 t ; + + + @ @ @ + O + + @ + 7 N         8 t w 8 e 8 w +.t.m.-.              ",
"                  q + + 4 8 w e !             e F @ + @ @ @ + + @ + + @ < 2             9 g 0 > > 8 8 +.m.d.              ",
"                  g % + = 8 w B N               E 8 * + + + + @ @ + @ @ 3 +               g 8 / ' ' +.-.m.t.              ",
"                  W > * 6 8 8 e 0               ! x 0 6 O @ + O o @ + + % +             8 t 0 &.w.2.t.0.m.z.              ",
"                  j 8 8 w w 9 8 V 0 0         9 e 8 8 w * + + + @ @ + + @ 7 6 8 8 v v e F 8 0 e ) w.s.d.c.d.              ",
"                  g 8 8 8 8 8 8 0 9 j j p > g N 8 w 8 2 + + @ @ @ + + + @ = 6 E W W E 8 8 8 8 8 8 0 ' ' c.w.              ",
"                9 W 8 8 8 8 8 e e > 8 8 8 9 8 8 8 8 @ + @ @ @ + + @ + + @ + + 6 e e w 8 8 8 8 8 8 8 v 4.v.t.              ",
"                8 E 8 v { 8 v v 8 0 0 8 p g p g 9 % % @ @ + @ @ @ + @ @ + + @ + 6 e N 9 : 8 9 8 9 w ' d.m.&.              ",
"                w E 8 / s.{ 8 w 0 t.%.p 8       = $ + @ = 4 6 + @ + 4 8 4 3 @ + 2 F E 0 > 8 8 8 8 8 +.t.l.v               ",
"                8 W N v &.z.{ 8 >.x.1.            * 5 : 8 B 6 + @ @ 8 N e           N 9 t 8 8 8 8 8  .+.V e               ",
"                  W v 8 <.z.w.+.d.m.|               E 8 c c 4 , @ = 8 t 8               9 e w e w 8 8 8 9 9               ",
"                  W B w { w.w.z.d.4.0             w B N B N 4 + @ 0 8 8 N               8 t 8 4 8 > 6 > g 8               ",
"                  t 9.>.' 2.9.w.d.4.1.t.z.>.9 e ! F w v 8 w 8 2 8 v v v F v           9 p > 4 + 8 0 > 9 g                 ",
"                  8 -.z.s.t.9.2.0.2.3.@.;.F 9 w w w 8 8 8 v N N v w 8 8 8 V F w 8 8 E 9 > w = + 8 N e t 8                 ",
"                  9 h.{ +.>.>.4.4.0.0.#.8 8 8 e v w v v w 8 w 8 0 v 8 8 8 8 8 9 t N v 6 X 4 * + 4 6 = 7 e                 ",
"                    8 9 j j.j.j.c.l.t.w.+.> 8 8 v v w 8 w 8 8 w 8 w 8 v 8 v v w N N e 0 O . + + # + + g                   ",
"                          >.>.+.4.%.4.t.t.c 8 8 8 v v v 8 8 w v v v N 8 w w v w v 8 0 0 4 % % % % & F e                   ",
"                                      X.w.' 8 8 8 8 8 8 w 8 8 v v v 8 v 8 8 w v w v B 8 - % + @ + @                       ",
"                                  @.8 9 v 8 8 8 8 8 w w v v v w e 4 @ 8 8 8 w w v A 0 +                                   ",
"                              8 X.;.8 8 8 8 8 v w 8 8 8 6 8 x v 8 2 + 6 > > w w v e > = w 2                               ",
"                            0 g > 8 8 8 8 8 w 8 8 8 > > : O ; 8 B 2 + = 9 0 e w 8 8 8 0 E 5 %                             ",
"                        8 j > 9 8 8 8 8 8 > 8 8 8 8 > 8 8 O . @ 6 @ + + 9 0 8 8 v 8 8 8 8 = 8 g @                         ",
"                      > E 0 8 8 8 w w 8 8 8 8 8 v 8 8 8 8 8 @ + + @ + @ % 2 @ @ = 8 8 8 8 8 8 8 7 q w                     ",
"                    8 g > 8 8 v 8 8 8 8 8 8 8 8 e e g 8 6 6 ; + + @ % +   + & @ ; 9 8 > 8 w 8 8 8 9 E t                   ",
"                  % 7 e > > 8 6 4 8 8 8 8 > w 0 j 0 = # @ + @ O + + % o     ; j 9 > 8 8 w w 8 8 8 8 9.' W v               ",
"                @ & + 4 8 6 @ . . : 8 8 8 8 E 8 0   4 3 . + @ @ + o $ O       0 W 0 v w w w 8 v w  .z.9.v W 8             ",
"                q + @ + 6 @ + O * 8 8 8 g E 0       e t ; @ @ @ + o $             9 e 8 N v v 8 8 -.z.9.A v 4.            ",
"              : 9 2 # + + @ @ 2 9 e g F 8           8 g 8 8 2 + . + &               e F N N v 8 8 +.z.z.&.z.M.w.          ",
"              + % = % @ @ % @ 2 ; 5 8               8 j w 6 + + O O &                 8 E 0 8 8 8 { t.z.z.t.c.w.          ",
"              , 5 < + @ @ @ 3 1 #                   > E e = + + 8 4 $                   8 X.' +.+.<.w.w.w.w.m.9.          ",
"                  < @ % & @ +                       e E B ; # 6 e t =                     t.m.c.9.9.2.9.t.c.t.            ",
"                                                      h.W ! 9 E t t 6                         t.j.n.c.c.c.t.              ",
"                                                        w 9                                                               ",
"                                                                                                                          ",
"                                                                                                                          ",
"                                                                                                                          "
};
