/* XPM */
static char *_ea4436a9d4a4e969af0396ab50933fdFPdBtBiaBevAQeHa[] = {
/* columns rows colors chars-per-pixel */
"61 61 256 2 ",
"   c #585721",
".  c #665A2B",
"X  c #75572C",
"o  c #765C33",
"O  c #526A32",
"+  c #586835",
"@  c #49763A",
"#  c #5A753A",
"$  c #636B2E",
"%  c #676A36",
"&  c #766735",
"*  c #736B3B",
"=  c #7B6B3C",
"-  c #64753B",
";  c #6C733D",
":  c #77743C",
">  c #4E7B40",
",  c #597B42",
"<  c #736943",
"1  c #687B42",
"2  c #7D7342",
"3  c #777B45",
"4  c #747C44",
"5  c #787C5A",
"6  c #895431",
"7  c #995C3C",
"8  c #A75138",
"9  c #83643C",
"0  c #8A673B",
"q  c #846B3D",
"w  c #94653C",
"e  c #98653E",
"r  c #86743C",
"t  c #99713F",
"y  c #AD633F",
"u  c #A55B40",
"i  c #846E42",
"p  c #8C6C41",
"a  c #996741",
"s  c #9C6C43",
"d  c #8B7343",
"f  c #867944",
"g  c #977646",
"h  c #A36D44",
"j  c #AB6845",
"k  c #AB6B46",
"l  c #B66A48",
"z  c #B26D49",
"x  c #A97549",
"c  c #B4734B",
"v  c #B7774D",
"b  c #AC7C51",
"n  c #B57D51",
"m  c #B67955",
"M  c #BA7D52",
"N  c #C1764D",
"B  c #C47D54",
"V  c #3B933D",
"C  c #37A03F",
"Z  c #49863C",
"A  c #56873D",
"S  c #67853F",
"D  c #3E9542",
"F  c #488842",
"G  c #598847",
"H  c #479845",
"J  c #4D944B",
"K  c #4C9B4B",
"L  c #559644",
"P  c #54944D",
"I  c #5B944D",
"U  c #549C4C",
"Y  c #5C9B4E",
"T  c #588D52",
"R  c #5C9652",
"E  c #589754",
"W  c #559B51",
"Q  c #5C9C53",
"!  c #6A8343",
"~  c #638C4A",
"^  c #698849",
"/  c #778749",
"(  c #63944D",
")  c #6A944D",
"_  c #639B4E",
"`  c #76954D",
"'  c #738A57",
"]  c #639552",
"[  c #6C9553",
"{  c #649C53",
"}  c #6B9C54",
"|  c #699759",
" . c #649C59",
".. c #6B9C59",
"X. c #779854",
"o. c #729C55",
"O. c #739D59",
"+. c #4BA44C",
"@. c #49AA4A",
"#. c #54A24D",
"$. c #59A84E",
"%. c #49B14D",
"&. c #4DA651",
"*. c #55A452",
"=. c #5CA353",
"-. c #5BAA57",
";. c #58B555",
":. c #68A44E",
">. c #64A354",
",. c #6BA354",
"<. c #63AA55",
"1. c #6BAB56",
"2. c #65A35A",
"3. c #6CA45A",
"4. c #64AB5B",
"5. c #6CAB5B",
"6. c #73A355",
"7. c #77A655",
"8. c #73A45A",
"9. c #7BA45B",
"0. c #73AB5B",
"q. c #7CAC5D",
"w. c #65B659",
"e. c #64B35C",
"r. c #6BB25C",
"t. c #74B35B",
"y. c #7BB35D",
"u. c #73B85C",
"i. c #65AA61",
"p. c #6CAC61",
"a. c #76A761",
"s. c #74AD61",
"d. c #7BAD61",
"f. c #6AB562",
"g. c #74B363",
"h. c #7CB462",
"j. c #7AB865",
"k. c #87873E",
"l. c #878549",
"z. c #988257",
"x. c #918C53",
"c. c #859B57",
"v. c #A7834C",
"b. c #AA855A",
"n. c #B58354",
"m. c #BB8455",
"M. c #B78A59",
"N. c #B8955A",
"B. c #BB935D",
"V. c #84A45C",
"C. c #87A95A",
"Z. c #86B45D",
"A. c #94B55C",
"S. c #878C65",
"D. c #988A69",
"F. c #8E9669",
"G. c #949669",
"H. c #B58562",
"J. c #AC9368",
"K. c #B69862",
"L. c #BD9C63",
"P. c #84AB61",
"I. c #82B463",
"U. c #87B766",
"Y. c #92B36B",
"T. c #BBA66B",
"R. c #BDA974",
"E. c #BBB37C",
"W. c #C58758",
"Q. c #C28C5B",
"!. c #C3945D",
"~. c #C8985E",
"^. c #D2965E",
"/. c #C59A66",
"(. c #C49C64",
"). c #CB9D64",
"_. c #CB916B",
"`. c #CC9D69",
"'. c #D29B66",
"]. c #CBA165",
"[. c #C4A568",
"{. c #C4A46B",
"}. c #CBA46C",
"|. c #CCA96E",
" X c #D3A469",
".X c #D3A26C",
"XX c #C8A773",
"oX c #C5AA72",
"OX c #CCAB73",
"+X c #CDAD7A",
"@X c #D7A772",
"#X c #D2AB74",
"$X c #D3AE7A",
"%X c #C7B178",
"&X c #CCB37C",
"*X c #D4B37D",
"=X c #D7B47C",
"-X c #8BC46E",
";X c #A0C160",
":X c #9EA586",
">X c #B7B78A",
",X c #CFAD86",
"<X c #CCB583",
"1X c #C8B988",
"2X c #CCBB8B",
"3X c #D4B582",
"4X c #D7B886",
"5X c #D3BB8C",
"6X c #CCBD92",
"7X c #C7BC98",
"8X c #D4BD92",
"9X c #D6BD94",
"0X c #BBCDAB",
"qX c #CBC18D",
"wX c #D4C08D",
"eX c #CDC294",
"rX c #CCC59C",
"tX c #C9C89B",
"yX c #D3C294",
"uX c #D3C49B",
"iX c #D7C799",
"pX c #E1C69B",
"aX c #CAC9A4",
"sX c #CCCDAA",
"dX c #D3CBA4",
"fX c #D6C9A5",
"gX c #DBCBA4",
"hX c #D3CDAB",
"jX c #CAD2AC",
"kX c #D4D3AD",
"lX c #DAD1A9",
"zX c #D2CFB2",
"xX c #C7D4B4",
"cX c #CCD3B5",
"vX c #CDD6BB",
"bX c #CCDABD",
"nX c #D3D4B4",
"mX c #D9D8B7",
"MX c #D3D6BB",
"NX c #D4DABD",
"BX c #E2DBB3",
"VX c #CDDDC3",
"CX c #CDDEC9",
"ZX c #D3DCC3",
"AX c #D9DDC4",
"SX c #D4DECA",
"DX c #CEE3C6",
"FX c #CDE3CC",
"GX c #D5E1C4",
"HX c #D8E3C7",
"JX c #D4E3CD",
"KX c #DAE4CC",
"LX c #CFE5D0",
"PX c #D5E5D0",
"IX c #DAE6D1",
"UX c #D9E9D2",
/* pixels */
"d.X.<.A.1.Y #.w.5.9.q.y.9. .8.] a.U.P F ^ -.t.U -.Q :.y.,.>.1.>.#.>.q.O.q.A.Q R &.j.>.V.t.C.,.a. .] h.a.J P  .<.r.J 4.I 7.",
"5.q.>.V.[ 5.o.1.u.7.) ) l.V.^ ) >.` ^ ' / I 0.X.F ( ^ ` ^ ) / / ! ' ^ / ^ ` ^ ` / >.q.^ ! / C.P.[ 2.t.7.Q O.[ =.g.i.D 3.} ",
"{ ( 6.O.[ d.} P q.1.[ / ) ` / 6.~ ! , c.G ( ] O.] G ! x.` ^ r l./ ^ - * / ^ / / A G 7.^ 2 ! :.X.X.,.<.#.3.P.P =.4.U.W Q >.",
"T r.o.[ I I.1.Q >.1.} / l.! ` ) ! 4 - L ~ C.( S ` ~ - 1 : l.r r 4 1 1 / : / ! c.~ ! ^ ` < l./ ,.o._ } ) +.@.3.Z.*.1.g.R I ",
"L h.w.X.) ] J W  .J F 1 : 4 ^ A S 1 4 / ^ G C.; / ( ! 2 S / r 0 d 2 ! f ! 2 ; ; @ ^ 1 @ * : 1 [ ~ G Q 2.3.3.*.r.U.Q g.4.o.",
"9.Q  .#.8.| <._ H &.] - ; + # 1 , : 3 / / G ! = 4 ) l.: ! 1 i s f l.f 2 3 G 3 ; ! - @ ~ = * - Z # , W <.2.0.8.+.,.9.3.0.t.",
"..U.>.L 1.U I T -.g.] - d i - 4 l.4 # 4 ; 1 / q * 1 f = # + a x f f 2 g ; # / % ; - ~ l.* i f ! ; l.q.*.$.>.{ } Z...>.6.P.",
"} 8.-.J y.H P s.p.8.) < = q : : k.% 4 3 2 3 : o - S 3 q i * g b p * f g : - 3 $ 1 / 4 < d i < 1 : ` :.K 2.3.8.h.} { %.t.r.",
";.( Z *.p.5.P a.{ ,./ i p & f r * % % % q f % & : 1 = q q d x v.a < : w & - / i $ f + r g x $ - g l.G V V U 9.y.Y ,.-.2.Q ",
"t.e.{ P ..[ 0.<.{ [ / d r 0 g q q 0 * 9 0 d q w 9 : p q q = x n a p f x 0 + i 9 2 ; * q x t $ - g = [ Y P o.a.Y.C.9.} V.2.",
"} r.I.R } ,.r._ $.1.3 0 t s g d 0 x l.0 6 t & h p : 0 w 0 = n Q.k p p x g . q p 2 & : d t s q & s g ` h.q.[ ) C.8.U.6.C.V ",
"V.>.&.%.8.t.q.-.f.6.: k h 0 0 d g g d 9 7 a & e p f s h p 0 n.B.c s a x d $ d g q ; d w x b 6   s l.7.d.5.I } Z.1.I >.-X4.",
",.8.@.*.K :.{ q.t.( = k h w w r g s g = 7 t 6 s v.& h l x e M.T.v k a c d X & s 9 r 0 w y m.0 . h l.{ 8.i.&.( r.{ K g.r.Q ",
"=.{ w.K P Y _ { >.G = c z h s 0 w h x 0 k k 6 n z.X h v c y b.T.c h w n x X 9 a 7 9 w s x n.w X x f G 9.0.+.6.q.{ 4.4.3.=.",
"R L e.@.I J { [ K # d M x x z e h x w w B k 6 x z.6 v v v k T.E.M j 7 n v.X w w w w 0 8 m.n.w 6 M.x.{ >.L Q ,.( P P Q [ 7.",
"P | V.Y 5.*.P +.w.^ i n.M B c h c z a h M.c 7 W.v.7 M M c k T.E.N.n 8 W.M 7 s k a 0 k c m.Q.y 8 L.x.} >.K >._ 6.{ c.y.j.X.",
"t.P ) >.U.X.C.1.5.^ d N.n.W.c j z M z g R.m.y W.v.y Q.Q.v x T.>XB.m.z n.m.8 l l l h l c M.b.v 8 [.F.( s.-.-.} 6.} 6.7.-XI.",
"Z.5.I p.6.C.P.I.6.G g T.M.m.v z z m v n.E.M.7 m.g 8 Q.L.W.B T.E.N.W.N B.m.j j B v N l m B.B.v 8 oXF.G ..f.;.>._ $.Y } ,.r.",
"h.U.Q U.W q.h.>.Y ! z.R.B.M.m.z B n.c m 1XL.v W.b 7 (.{.M.v.E.tX(.B.Q.(.K.l j W.v z c m.B.].n.y >XG.( K { 2.} r.1.] } J u.",
"9.5.q.7.R 1.#.K Q - z.E.~.].M.l W.M.n m yX{.c M.n.b /.T.N.N.T.tX(.(.W.(.).l l B z l m W.N.~.~.v E.F.U &.{ O.P.e.J =.p.=.Q ",
"] X.X.,.J U <.,.a.- z.1X~.[.!.c m.~.m.m tX[.n ).n.n.|.oXL./.oXaX[.L.Q.}./.v v m.M B W.M.L.{.].W.1XS.G w.#...s.=.$.Y.%.a.9.",
"-.C.( ..4.=.=.{ 3.- x.1X~.}.(.W.Q.}.M.n.tX~.B. Xn.m.[.|.oX|.oX0X[.T.}. XL.Q.B.B.M W.Q.N.(.[.].Q.qXF./ t.H Q 0.,.f.U.*... .",
"h.' { 1.5.8.J | 3.: J.>X(.}./.Q.~.}.(.m.7X(.B.}.m.Q.T.[.%X#XoX0XN.oX}.{.oX/.{./.n.!.!.OXR.).[.(.qXG.G 0.2.| [ Q =.q.{ | H ",
"0.Z.8.K _ ,.I $.*.; N.>X!.[.[.).(.oX{._.uXT.(.|.!.(.T.[.|.|.&X0X[.OXOX#XoXB.oXoXm.(.(.}.[.L.[.!.qXG.F 1...O.P.W ( 9.I.*.D ",
"Y A.Q r.| _ } <.>.* b.>X~.].L.[.|.%XT._.iX|.{.|./.L.oX|.|..X*XjX}.|.|.#X[.oX%XoX~.[.}.OX[.(.].!.>XG.G <.P 9.U.5.=.3.<.K 0.",
"1.q.P P.r.>.} q.9.= H.2X~.}.`.|. X%XT.`.tX&XOXoX`.).oX{.|.|.*XvX(.|.OX|.{.#XqX%X`.OXXX&X}./.}.].eXD.G &.>.} 8.I.1. .` Q e.",
">.=.a.{ w.r.} o._ ; J.2X(.|.}.[.|.%X%X+XtX&XOXoX}.OXT.{.|.|.&XvX].T.oX[.OX].aX2X).}.oX1X}.[.}.].qXG.A $.8.8. .V.p.I X.y.D ",
"Q X.0.+.U 1.y.o.=.% H.qX].[.{.{.oX%X*X*XeX+XoXoXXXOX{.{.T.{.OXvX}.oX}.#XOXN.jXqX}..X%X2X].}.|.].>XD.@ 1.V.y.8.o.=.=.I g.K ",
"O.c.0.5.H <.I.8.2.* b.qX).(.L.}.{.3X3X+XuX<X[.OXoXoX{.T.OX%X<XvX}.XXOX.X|.).0X6X XXX&X1X].|.].B.>XD.@ Z.7.6.O.=.U q.P Q K ",
"6.1.i.3.W <.t.5. .* H.1X~./.{.#X}.&X&XOX2X2XoX3XrXaX<X<XqXiXrXcX<X<XiXtX<X|.xX2X].#X+X6X(.).).~.eXD.> 3.} 1.} ( >.U.Q P 6.",
">.e.W 3.<.3.o.8. .. b.1X!.`.}.#X}.R.1X&XrXsXtX3XsXxX4X3XqXuXaXbX&X2XjXjX1X6XVX6X|..X+X6X(.(.).).eXG.@ W Q w.s.{ { Z.#.1.C.",
"e.-.*.f.i.o.d.o.{ . H.2X^.`.).|..X{.tXaXkXVXsXaXDXnX3X2XwXeXaXVX&X2XjXsX1XrXVXrX9X1X&X1X).`.`.~.yXD.@ U J 4.I.5.| { =.y.6.",
"r.[ f.h.0.Q f.r.{ o H.yX^.`.`.`.#XyXjXaXrXVXkXxXDXjX2XyXrXrXkXDX2X2XnXsX5XyXDXrXwXrXsXrX]. X'.).1XD., { F R O.r.0.D e.1.) ",
"0.9.,.Z.} >.Y r.1.& m 6X'.'..X+XqXiXxXsX7XvXnXMXFXxX8XiXrXdXnXGXqXyXMXnXwXyXVXrX2XeXkXhX X'. X'.6XD.G s.T R ) -.t.Q #.{ 6.",
"1.o.,.o.[ a.} _ 5.& m 5X^. X$X5XqXyXcXnXfXvXnXGXFXcXeXgXgXkXNXKXiXuXNXnX9XuXZXfX5XeXnXdX.X}..X'.yXG.Z >...d.) =.p.d.H  .>.",
"I >.X.o.] I.,.P ,.& M.5X^.'.*X5X<XuXcXnXaXAXvXGXJXNXrXlXmXmXNXKXkXhXMXMXuXfXSXlXeXeXnXdX.X@X.X^.yXD.@ Y =.5.Q 0.-.j.4.P ( ",
"P g.5.X.( 7.>.Q E . m 8X^.'.*X<X3XuXbXcXhXGXNXZXPXGXhXzXMXAXKXHXhXnXCXGXdXfXZXkXrXuXcXsX].@X@X).qXD.@ { #.$.<.y.0.=.j.=.] ",
" .7.-.} [ ] U W E . H.,X~.'.OX1X2XuXNXMXnXVXHXAXJXJXNXNXbXGXSXJXAXmXAXAXnXhXSXsXrXrXcXjX X`..X~.7XD.@ W ..8.>.-.I.| 5.5.0.",
"9.3.{ +.0.{ >.Y H % H.6X^.'.oX5X5XdXbXNXMXZXAXKXJXHXGXVXDXCXSXJXAXHXAXSXMXcXJXkXdXaXbXnX`..X.X~.2XD.> *.Q 6.6.*.0.9.>.0.h.",
"} I.>.P 1.H P  .-.& m 1X^.'.$X5XwXdXVXNXMXSXKXSXJXJXKXGXDXCXJXPXKXSXKXKXNXvXPXxXhXhXZXmX}.#X@X'.8XD., &.=.>. .9.7.,.=.0.q.",
"<. .*.P s.Y J g.i.X B 9X^..X3X4X9XrXVXVXNXKXSXSXLXJXJXJXPXPXPXPXJXCXJXPXVXNXJXcXnXnXZXMX#X$X.X'.yXD.O H W  .9.h.{ { ;.4.>.",
";.>.F Q 5.a.Q 3.G X _.9X^.}.4X4X5XuXvXVXmXIXIXIXPXPXJXFXJXPXPXPXJXJXPXSXVXZXPXAXnXnXNXmX=X=XOX XpXD.@ F Z Y 9.I.6.,.>.6.Q ",
"q.w.7.P } | t.>.T X '.5X'.$X*X4X9XgXSXZXAXIXIXIXJXKXPXFXFXPXPXIXSXPXIXPXSXZXKXZXmXcXNXNX4X*X$X XyXD., 3.( X.8.U.V.q.o.C.Q ",
"O.1.y.U o.5.5.{ #.6 _.4X'.@X4X4XyXgXHXAXMXSXAXIXUXIXJXFXLXLXPXPXIXIXJXPXPXVXJXZXmXkXGXNX*X*X$X'.iXD.1 h.7.] ] C.1.9.,.U.H ",
"V.} %.%.>.0.7.r.p.X _.yX X[.*X4XiXiXKXVXZXIXPXFXJXUXUXPXJXPXPXPXPXIXIXSXFXDXJXGXmXnXHXMX4X4X|.~.yXG.~ a.1.U } y.1.H >.-X4.",
"=.3.%.U H Y I 0.5.% b 5X'.#X*XqX9XyXKXDXMXPXJXCXPXPXSXUXUXPXPXPXPXPXPXPXFXVXVXNXMXlXNXNX*X3X|.).qXG.G 8.1.+.{ 0.] =.g.-.I ",
"=.I r.+.R P _ { Y @ d .X`.#X*X2X9XuXAXSXMXSXSXPXPXJXPXPXUXPXFXLXPXSXCXPXJXVXZXvXnXhXMXMX3X$X#X}.].l.G 8.,.U 6.7.R 2.=.| 1.",
"P Y 1.+.{ U Y  .*.G 2 !.'.#X*X3X5XuXVXMXmXSXCXSXSXPXIXSXPXPXPXPXPXSXFXCXHXbXZXcXfXdXvXMX3X$X|.@XM : a.-.H { >.( I I } 8.7.",
"_ ..V._ h.1.{ +.t.0.F f @X@X*X3X5XyXZXkXnXAXJXAXIXUXIXKXJXSXSXFXPXPXJXKXAXNXAXhXdXtXNXnX$XOX@X@Xv.~ t.<.*.-.] 6.,.c.I.-X9.",
"I.U G >.Z.c.A.Z.0.5.Q $ H.=X@X=X4X5XNXaXkXZXSXSXSXKXIXKXSXPXFXFXSXPXJXZXAXMXmXgXpXgXmXiX$X}.#XH.% o.3.a.4.;.,.,.{ ,.:.Z.j.",
"U.h.R h.R C.s.q.} =.3.~ f `.#X$X4X3XmXiXdXNXGXMXZXSXZXHXSXSXJXFXCXAXKXKXnXmXdXgXyXiXhX*X$X@X(.< U 5. .Q 5.f.Q >.-.I ..P 4.",
"t.U.2.U.Q 5.p.K #.2.Q { G z.$XOX3X3XMX9XuXNXAXzXAXCXMXZXVXvXJXPXAXMXAXKXzXlXuXiX8X6XdX#XOX.X6 > &.a.d.+.W } 8.r.8.] 3.K 0.",
"X._ q.,.P =.H Y 2.O.I P q.) f ,X*X+XdX5XpXkXsXdXZXAXhXnXcXnXJXJXmXzXzXAXgX8X6X9X<X5XfX$X|.r [ 0.I :.;.;.Q X.Y.-.D f.e.4.Q ",
"L V.[  .K W 1.0.d.=.H 3.y.7.G < <X5XeX+X4XuXrXpXNXMXiXgXdXgXAXJXdX9XzXmX9X8X1X3X*XwXdXR.= ( t.7.,.[ 7.r.&.2.5.Y f.Y.%...V.",
"p.C.I  .a.2.K ( 6.<.-.w.0.6.1.o.X R.yX2X4X9XyX4XMXMX5XiXiXiXMXCX8X8XlXmX<X4X3X3X1X,XJ.+ W <.7.[ r.q.P.q.H I 9.3.f.q.{ | Q ",
"P.] 1.<.1.8.U 3.3.h.e.&.8.0.5.f.{ O z._.uXdXqX=XzXnX#X4XwXwXMXvX<X*XfXnX4X5XdX9XJ.8 > U.%.=.q.8.f.1.,.5.p.O.| P L 9.} 2.V ",
" .;X8.K ( =.) $.+. .2.-.R Y U g.Q 3.F & b R.>X9XmXZXrXuXyX5XmXNXuXlXnXBXuX>XH.2 # @.W  .4.Q { H 4.s.2.>.{ 9.U.2.} 7.I.@.K ",
"Y A.J j.8.] } t.d.O.=.>.o.c.P _ P.i.+.| X.G % g G.:X7X7XyXwXgXkX7X7X:XK.= / G ] O.p.V. .-. .c.} L X.d.-.U o.P.j.*. .J W a.",
"5.Q { V.w.<.} 9.8.a.I.8.+.h.q.1.C.@.4.3.Q q.j.] ^ ~ G # / l.k.v.& ! I T | Z.;.[ X.9.O.g.U.U <.h.0.C.:.+.i.2. .U.j.] c.<.@.",
"{ =.s.H <.u.,.[ Y ;.p.2.r.s.i.@.:.>.,.V.{ c.>.Q ( I.L -.;.w.,.[ <.%.( 1.p.H r.g.} | @.f...;.t.i.+.$.1.>.9.a.| 9.Q Y { I.D ",
"Q c.0.-.P >.Z.8.5.0.q.u.w.$.Z Q R <.A.g.9.,.W 4.Y >.{ J H U ^ 5 S.F.F.S.' S.S.F.G.' G.G.F.5 < @ @ 5 f 5 5 5 5 F.S.+ F 3.T "
};
