/* XPM */
static char *dbdb9283fb1e411291268cd230b98d7drwmrL0XuyhcNMPdm[] = {
/* columns rows colors chars-per-pixel */
"61 61 135 2 ",
"   c None",
".  c #2682D5",
"X  c #2884D5",
"o  c #2F8AD7",
"O  c #2C86D8",
"+  c #2E8CD9",
"@  c #318FDA",
"#  c #3492DC",
"$  c #3A96DC",
"%  c #3D99DD",
"&  c #2D91E6",
"*  c #3496E3",
"=  c #3997E2",
"-  c #3699E5",
";  c #3A9AE4",
":  c #3599E9",
">  c #3A9DEA",
",  c #3AA0F1",
"<  c #439DDE",
"1  c #46A0DF",
"2  c #46A0E0",
"3  c #4CA5E1",
"4  c #4FA8E2",
"5  c #45A5EB",
"6  c #47A8ED",
"7  c #4CABED",
"8  c #54ADE3",
"9  c #58AFE4",
"0  c #51AFEA",
"q  c #57B0E4",
"w  c #59B1E5",
"e  c #55B2EC",
"r  c #5AB3E8",
"t  c #58B3E9",
"y  c #5BB5EA",
"u  c #5BB6EB",
"i  c #5CB6EA",
"p  c #58B5ED",
"a  c #59B6ED",
"s  c #5AB6EC",
"d  c #58B6EF",
"f  c #59B7EF",
"g  c #5AB7EE",
"h  c #5AB7EF",
"j  c #5AB5EB",
"k  c #5AB8EF",
"l  c #5CB9EF",
"z  c #53B3F0",
"x  c #57B6F0",
"c  c #57B6F1",
"v  c #57B7F2",
"b  c #56B5F1",
"n  c #59B7F0",
"m  c #58B6F1",
"M  c #58B7F1",
"N  c #58B7F1",
"B  c #59B8F1",
"V  c #5BB8F0",
"C  c #5AB8F1",
"Z  c #5AB9F1",
"A  c #58B8F3",
"S  c #5AB8F2",
"D  c #5BBAF3",
"F  c #5BBBF3",
"G  c #5CB9F0",
"H  c #5DBAF0",
"J  c #5DBAF1",
"K  c #5EBBF1",
"L  c #5DBAF2",
"P  c #5DBBF3",
"I  c #5DBBF4",
"U  c #5DBCF4",
"Y  c #5FBDF4",
"T  c #5FBEF5",
"R  c #5CBAF2",
"E  c #5DBFF9",
"W  c #62B2E5",
"Q  c #63B5E6",
"!  c #62B6E6",
"~  c #64B4E5",
"^  c #64B5E6",
"/  c #64B7E7",
"(  c #62B5E6",
")  c #69B7E6",
"_  c #69B8E7",
"`  c #6BB9E7",
"'  c #6CB9E7",
"]  c #6DB9E7",
"[  c #6EBAE7",
"{  c #6CB9E7",
"}  c #63B7EA",
"|  c #62B9EE",
" . c #66BAED",
".. c #67BCEF",
"X. c #68B9E9",
"o. c #6EBAE8",
"O. c #6DBBE9",
"+. c #71BBE7",
"@. c #71BBE8",
"#. c #71BCE8",
"$. c #72BCE8",
"%. c #72BDE9",
"&. c #72BEE9",
"*. c #73BEE9",
"=. c #74BDE8",
"-. c #74BDE9",
";. c #74BEE9",
":. c #75BFE9",
">. c #76BEE9",
",. c #76BFE9",
"<. c #74BFEA",
"1. c #75BFEA",
"2. c #73BDE9",
"3. c #61BCF1",
"4. c #65BDF1",
"5. c #61BFF5",
"6. c #6ABFF2",
"7. c #76C1ED",
"8. c #74C1EF",
"9. c #76C1EE",
"0. c #75C1EC",
"q. c #62C0F6",
"w. c #6BC2F6",
"e. c #60C0F8",
"r. c #61C3FC",
"t. c #73C2F0",
"y. c #75C2F0",
"u. c #76C6F6",
"i. c #78C4F1",
"p. c #78C5F3",
"a. c #76C8F7",
"s. c #7FCBF7",
"d. c #7BCAF9",
"f. c #7ECDFA",
"g. c #7FCCF9",
/* pixels */
"                                                                                                                          ",
"                                                                                                                          ",
"                                                                                                                          ",
"                                                                                                                          ",
"                                                                                                                          ",
"                                                                                                                          ",
"                                                                                                                          ",
"                                                                                                                          ",
"                                                                                                                          ",
"                                                                      8 w                                                 ",
"                                    ! %.;.%.%.0.                  8 M M H e.q                                             ",
"                                  w I q O.9.9.f.;.              e q 8 8 9 q q                                             ",
"                                8 f 8 8 [ %.o.%.f.%.          w Y 8 q q w 9 i                                             ",
"                                e w 8 8 %.[ 9 W i.O.          w r 8 9 q q 8 f                                             ",
"                              4 e 8 8 8 ! 9 9 9 y._           9 8 q 8 8 8 w k                                             ",
"                              4 z 4 8 8 4 8 9 8 | w           9 8 8 q 8 8 w H                       3 8                   ",
"                              4 b 9 8 q 8 8 8 q r 8           f q q q q q 9 M 8                 # O 5 U q                 ",
"                $ # % 8 q q   q C 9 9 q 8 8 8 9 i 8           f q q 8 8 8 4 e 4           r q p , # 3 8 t 8               ",
"          # # : : 6 k H H e.H q q q q 9 8 8 9 q w 8           p 8 9 8 q q 4 q q       q w H r 8 q 1 8 9 8 b 8             ",
"        # : @ @ # # 2 w q 9 8 8 q q 8 q 8 q q q w q           m 8 8 q q 3 3 p 8   w C b 8 q q 8 q w 8 9 9 0 4             ",
"        - # @ # # + + 2 q 8 8 q q 8 8 q 8 8 w q w k           f w 9 3 $ # # 4 q 8 Y 8 8 8 8 q q q q 8 1 8 8 9             ",
"        > # # + $ $ # + < 8 8 8 8 8 8 w q q q q q Y           m 8 < # @ + $ 8 w q 8 8 8 8 8 q 4 q 8 q q 8 w 9.            ",
"        > @ # $ # + @ # + 3 q 8 q 8 w q q 8 8 8 8 b           7 $ @ @ @ # 8 q 8 9 q 8 q 4 1 8 q q 4 8 8 8 ! p.            ",
"        ; @ + 3 3 $ $ + + $ q q 8 8 w 8 8 8 1 4 8 m 8         ; # # # + $ 8 q q 8 r w q 8 8 8 8 8 [ [ ! 8 4.;.            ",
"        % # @ $ q q 8 4 % < q 8 4 8 8 q q < # # $ > $         - # # # # 4 r q q w r q q 9 8 8 8 q ) 0.=.X.}               ",
"          , @ # 8 q w q q q 8 q 9 q q 8 q 1 # o # : +         # # @ @ 3 8 4 1 8 q q q 8 9 8 8 q q q 8.d.0.                ",
"          $ * * 7 Y Y C M f C M q q w q q r 1 X o : @         $ @ + # @ + + # + < q q 8 8 8 9 w ..| ! 0.                  ",
"                            9 8 8 q w w q q q 1 . * #         # # # @ @ @ # + # 8 8 q q 8 C u.9.0.                        ",
"                                4 k w q r w q 1 2 5 #         # # $ @ # # % 2 4 8 t A H w w %.                            ",
"                                w l w w q q 8 8 t 7 #         # * # $ 3 4 9 q 8 t q w                                     ",
"                                w k q q q 8 8 8 $ : $         # # # # $ 3 w 9 t 8                                         ",
"                                q H r w q 9 2 # # > +         # * # # + + 2 9 C q                                         ",
"                                q q.r w w 8 # @ $ - O         # = + @ + # # < l w                                         ",
"                                r q.w w 8 @ @ o @ - @         # 8 3 = $ # # + e r                                         ",
"                                r H 9 q 4 $ @ % 2 e 8         $ q r w 8 1 4 % d r                                         ",
"                                w F 8 8 8 4 8 8 9 b 8         < r w w 8 q w r q.w                                         ",
"                                w w.w q 4 q q q 8 A 4         9 r q w q q q r q.                                          ",
"                                  s.~ 8 8 q 8 q 8 U 9         9 q 8 q q w q q Y                   8 H I C E 8             ",
"                                0.a.q q w q 8 q q C 8         9 8 q q q q q 9 C                 8 E q 4 8 q U             ",
"                                  H 9 q 8 8 q q q A           q 8 q q 8 8 8 8 3.                9 4 8 q 9 9 C 9           ",
"                                ~ e 9 9 4 8 r r 8 H           q q q q q w r q l                 5 @ $ q q 8 t q           ",
"                          +.%.u.1.w 4 8 9 q q q w f           9 8 q q q q 8 8 k               + & $ 4 q q q r w           ",
"                    ;.~ u.u...;.;.[ 8 8 q 8 q q 9 9           q 8 8 8 q q 8 q q q 9         # $ # 3 r q q q q l           ",
"              q o.s.w.8 %.[ 9 W ) [ 8 8 8 4 8 9 t 8           8 8 8 8 q 8 q 8 q q C 6 = * * > = $ < 1 q q q q r           ",
"            w 5.9.[ 8 8 [ =.q 8 4 8 8 8 3 q 8 8 e 8           # 1 9 8 4 8 8 8 8 q % + # $ # # # $ # + 2 q q q 9           ",
"          w e.w ! q q 8 r [ 8 8 8 4 q q 8 8 q 8 e 8           @ $ 8 q 8 8 q q 9 8 % 1 1 % @ # + < 4 3 q q t r w           ",
"          8 r 8 q q w 9 8 8 8 8 8 8 q q 8 8 9 4 p 9           # - 1 8 8 q q q q 4 q q 8 # $ % o % w q 8 8 9 r q           ",
"          w k 8 8 w q q 8 8 q q q q q q 8 8 8 8 C               : < q q q q q 1 8 8 8 4 @ 3 3 + $ 8 8 8 8 8 H 9           ",
"            5.8 8 w w q w 8 9 8 8 9 9 w q 8 8 8 r.              # > 3 % % $ 1 8 8 8 8 8 3 8 8 $ < q 8 w w q k             ",
"            w w 8 w w q 8 9 8 8 q 8 q q q t A H 9                 = $ + + + + 4 q 9 8 4 4 4 q q 8 8 q w 8 l 9             ",
"              E p m f q q p m C b A A H q q q                     # - > = 2 4 q 8 8 8 8 4 8 t q q q ! 8 k t               ",
"                4 4 8 % $ 8 w 8 8 8                                   $ 4 q f M C m b b b A Y C 5.u.u.9 8                 ",
"                                                                                                r                         ",
"                                                                                                                          ",
"                                                                                                                          ",
"                                                                                                                          ",
"                                                                                                                          ",
"                                                                                                                          ",
"                                                                                                                          ",
"                                                                                                                          ",
"                                                                                                                          "
};
