/* XPM */
static char *c8b6c51022ee44eab2bff2f9fb7aa4c6JPf0xq1rGeJeQVP4[] = {
/* columns rows colors chars-per-pixel */
"62 62 255 2 ",
"   c #000000",
".  c #00070D",
"X  c #001E1F",
"o  c #29030E",
"O  c #0B3010",
"+  c #3D3D07",
"@  c #001728",
"#  c #0D342F",
"$  c #292728",
"%  c #2C2C2B",
"&  c #332E29",
"*  c #2B3333",
"=  c #353535",
"-  c #353936",
";  c #3B3B3A",
":  c #423E18",
">  c #443A33",
",  c #2C4914",
"<  c #294E30",
"1  c #38493B",
"2  c #24593A",
"3  c #38523D",
"4  c #5D5116",
"5  c #584C26",
"6  c #4E4F35",
"7  c #64522B",
"8  c #654C31",
"9  c #665536",
"0  c #775839",
"q  c #4D6D3A",
"w  c #023B47",
"e  c #0A3648",
"r  c #313C44",
"t  c #413948",
"y  c #014658",
"u  c #1A4658",
"i  c #2B444A",
"p  c #3C4746",
"a  c #3B5944",
"s  c #374C57",
"d  c #2D5054",
"f  c #3C6647",
"g  c #3A744A",
"h  c #397653",
"j  c #004D67",
"k  c #05526B",
"l  c #175168",
"z  c #015A77",
"x  c #165C77",
"c  c #285366",
"v  c #395564",
"b  c #215D75",
"n  c #02607B",
"m  c #1B627D",
"M  c #326477",
"N  c #444544",
"B  c #46494A",
"V  c #4B4B4B",
"C  c #4A5448",
"Z  c #575748",
"A  c #474E51",
"S  c #4A5356",
"D  c #535354",
"F  c #565758",
"G  c #5C5C5C",
"H  c #675447",
"J  c #795B49",
"K  c #645B58",
"L  c #735D56",
"P  c #46694A",
"I  c #586F4C",
"U  c #497449",
"Y  c #477A53",
"T  c #567756",
"R  c #796447",
"E  c #686858",
"W  c #79645B",
"Q  c #687051",
"!  c #4E5C62",
"~  c #675E61",
"^  c #5D6264",
"/  c #5D6766",
"(  c #4D6D77",
")  c #646464",
"_  c #666968",
"`  c #6C6C6C",
"'  c #786964",
"]  c #6B7569",
"[  c #777767",
"{  c #6D6F70",
"}  c #6D7172",
"|  c #737373",
" . c #757776",
".. c #7B7B7B",
"X. c #865D4D",
"o. c #846548",
"O. c #8E6B56",
"+. c #88735C",
"@. c #9C755C",
"#. c #A9775F",
"$. c #846B62",
"%. c #887269",
"&. c #9A7A6A",
"*. c #947D72",
"=. c #A87B65",
"-. c #A67F70",
";. c #3D8254",
":. c #478759",
">. c #4A8C5B",
",. c #538A5B",
"<. c #47915F",
"1. c #4C935E",
"2. c #4F985D",
"3. c #53945D",
"4. c #5A955C",
"5. c #539A5E",
"6. c #5B9A5D",
"7. c #638C5B",
"8. c #75885E",
"9. c #64995B",
"0. c #63A25D",
"q. c #6AA85D",
"w. c #70A95E",
"e. c #7AB25E",
"r. c #4F8D61",
"t. c #4C9562",
"y. c #4A9564",
"u. c #4E9964",
"i. c #529662",
"p. c #589764",
"a. c #549B64",
"s. c #5B9C63",
"d. c #539C69",
"f. c #5A9D6B",
"g. c #7A826D",
"h. c #728F6B",
"j. c #629C62",
"k. c #689A63",
"l. c #5CA364",
"z. c #5AA665",
"x. c #54A36B",
"c. c #5BA36B",
"v. c #55A86E",
"b. c #5DAB6B",
"n. c #55A571",
"m. c #5BA572",
"M. c #55AC74",
"N. c #5BAB73",
"B. c #55AF78",
"V. c #5AAC78",
"C. c #5BB074",
"Z. c #63A364",
"A. c #6AA565",
"S. c #65AA65",
"D. c #6CAC63",
"F. c #63A46A",
"G. c #63AD6B",
"H. c #6CAD6B",
"J. c #74AA64",
"K. c #77A866",
"L. c #73AB6A",
"P. c #6CB063",
"I. c #62B16A",
"U. c #6BB36D",
"Y. c #75B267",
"T. c #64AD73",
"R. c #69AD74",
"E. c #65AD7A",
"W. c #67B174",
"Q. c #74B476",
"!. c #839C5F",
"~. c #82B45C",
"^. c #858875",
"/. c #8C8D70",
"(. c #A88469",
"). c #A98574",
"_. c #AE8E76",
"`. c #B78A74",
"'. c #BB957A",
"]. c #86A863",
"[. c #83B268",
"{. c #89A470",
"}. c #C28E75",
"|. c #C6967B",
" X c #005E82",
".X c #026788",
"XX c #156987",
"oX c #087497",
"OX c #197798",
"+X c #27728F",
"@X c #057EA4",
"#X c #197EA3",
"$X c #546F88",
"%X c #1882A7",
"&X c #1E86AC",
"*X c #1E89AF",
"=X c #178CB5",
"-X c #1F8AB1",
";X c #2189AF",
":X c #768685",
">X c #68AA87",
",X c #848484",
"<X c #838A86",
"1X c #8C8C8C",
"2X c #8B9089",
"3X c #979987",
"4X c #929292",
"5X c #9A9F91",
"6X c #9D9D9D",
"7X c #B39984",
"8X c #A7A999",
"9X c #B7A591",
"0X c #98A0A6",
"qX c gray64",
"wX c #AAAAA7",
"eX c #B6AFAA",
"rX c #B4B3A4",
"tX c #B4B4B4",
"yX c #B8B8B9",
"uX c #CB9B83",
"iX c #D49D85",
"pX c #C9A586",
"aX c #DAA88C",
"sX c #CBB694",
"dX c #DBB293",
"fX c #E9B294",
"gX c #E7B899",
"hX c #CFB7AC",
"jX c #E4BDA5",
"kX c #F1C39E",
"lX c #D9C4A8",
"zX c #E9C6A6",
"xX c #F2C9A7",
"cX c #F7D2AD",
"vX c #EECEB1",
"bX c #E8D4B6",
"nX c #FAD7B6",
"mX c #FEE4BD",
"MX c #FFE9BF",
"NX c #9FB3CA",
"BX c #B6C8D4",
"VX c #CFD0D2",
"CX c #EBDBD1",
"ZX c #FBE3C6",
"AX c #FFEAC4",
"SX c #FFF1CA",
"DX c #EFE3D3",
"FX c #FBECD8",
"GX c #FFF3D7",
"HX c #FFF3DB",
"JX c #D1E1F5",
"KX c #FEF7E4",
"LX c #FFFBEA",
"PX c #EEF3F2",
"IX c #FEFEF8",
/* pixels */
"E.E.v.w.~.].Y.B.M.K.V.Q.H.I.v.J.v.G.].Q.U.I.S.N.H.z.E.S.U.v.S.E.R.E.n.P.~.].H.M.M.K.V.Q.S.G.x.K.v.U.~.Q.U.W.P.E.U.I.R.S.U.M.",
"U.K.H.G.U.K.K.Q.U.L.B.E.M.E.S.z.m.H.x.S.q.q.S.z.F.x.G.b.n.I.v.H.H.K.D.c.A.9.K.F.G.A.V.E.n.N.Z.b.E.U.v.G.D.J.I.I.W.N.W.I.v.G.",
"Y.P.Y.G.v.J.v.U.K.W.G.b.b.c.F.l.z.m.m.c.a.9.9.d.Y - % % % % % % % % % $ % & - :.9.j.d.f.l.d.F.z.z.E.E.E.v.P.e.V.N.W.W.Y.H.T.",
"U.V.Y.I.S.I.N.G.b.z.G.D.S.k.s.u.u.f.s.s.4.Y Y Y P ; ; - = ; ; ; ; ; ; ; ; ; ; P :.Y Y 4.s.k.s.u.v.z.U.J.D.G.U.B.V.U.U.P.P.T.",
"V.Q.Y.U.U.I.b.C.R.v.x.s.9.9.r.i.d.p.3.p.U - % * ; N V N V V V V V V V B B V N ; % % 1 U 5.7.y.a.f.f.0.l.J.S.v.Y.L.U.Q.Y.S.U.",
"B.Y.L.U.U.V.V.W.U.Z.9.s.1.<.a.d.:.Y g Y a ; N N G _ ` ` _ K G F F F ^ ` ` { ) F p 6 ; 3 g g Y r.6.5.a.p.Z.c.S.N.{.P.Y.v.I.v.",
"Q.B.{.w.b.R.T.R.H.Z.s.,.9.p.u.i.P * $ * ; V F ^ | ,X1X1X,X` G D F K } ,X1X1X,X{ G L V ; % % - f p.p.2.p.s.Z.F.U.W.b.b.b.T.>X",
"D.Y.G.v.H.N.U.K.H.Z.<.4.1.y.>.P p 6 B V G ` g.4X6XqX6X4X1X,X| ^ G | ,X1X4X6XqX6X1X$X` K V V 6 p U :.t.t.4.y.Z.w.D.I.H.U.T.B.",
"V.H.G.S.b.N.G.x.s.4.p.u.f.d.P % N D K `  .1X6XtXyXyXwX4X1X1X,X} | ,X1X1X4XwXyXyXwX6X1X ._ G V t * P s.f.p.p.x.x.q.e.K.b.W.M.",
"R.U.U.R.G.z.c.d.p.i.a.i.:.f 6 p D G ` ,X4XqXtXyXtXwX6X1X1X1X1X,X,X1X4X1X4X6XwXtXyXtXqX4X$X{ K D N p P :.3.a.j.j.z.H.H.D.N.H.",
"Y.H.U.U.V.x.z.6.9.s.l.3.C = N F K { *.1XqXtXyXtXwX1X1X1X1X1X1X1X1X1X1X1X1X1X4XwXyXyXtX6X3X*.` ^ D V = a 1.6.3.6.6.z.D.x.N.I.",
"M.{.P.v.T.F.s.4.9.p.Y a 1 V F )  .,X$X..4XqXqX6XqXwX6X,X*.1X4X1X1X1X1X..,X6XwXqXqXqXqX1X..,X:X .K D N 1 C Y 2.p.a.6.A.b.b.S.",
"V.T.I.b.z.K.4.5.6.3.3 ; B F ~ ` ,X1X..` ..,X1X1XqXtXqX| _ ,X4X1X1X1X1X`  .wXtX6X1X1X,X .` ,X1X*.` ) D B = C t.s.d.u.{.0.S.v.",
"W.E.U.K.0.9.3.>.u.:.< ; F ) ` ` ` `  .,X..%.1XwXqX4X .F / 1X5X$X,X1X,X) G ..4XwXqX1X| ..,X.._ ` } ` ) D * 3 i.a.d.a.F.z.v.I.",
"U.I.G.b.q.9.5.1.y.:.1 ; K } } ` F D | 1X^.| 4XtXqX] D D ` ,X,X' ` ,X,X` D D | qXtX1X` ,X1X` V G _ ` ` K ; a t.y.6.s.0.b.H.[.",
"B.Y.Y.J.Z.4.i.:.f 1 N V ) } ) F F G `  .$X,X4X6X,X~ ~ ..,X..} S F %.$X....G G 1XqX1X,X....` G F G )  .) V N a P :.u.0.D.L.U.",
"U.H.U.F.s.6.y.>.1 > V F ) _ K D _  .{ ) ..1X4X,X| V ` 1X1X` K W L ~ ` 1X1X^ D | ,X4X4X%.) ` | ) F G ` ) F B - a :.a.u.b.S.~.",
"S.I.T.z.f.5.1.r.1 = V D F F G _ *.:X| F | 4X1X .^ r ~ 3X,Xs L `.`.H s <X1X^ r ^ $X3X1X| F | 1X..) K F F D B = a :.4.5.d.L.v.",
"v.H.G.c.a.s.p.Y 1 = B D D D ^ | ,X4X .D _ ,X..^ ~ $.%.$X$X%.7XjXjX7X[ ..$X%.$.L ` $X,X_ D ..4X,X| G V V D B - 3 :.a.a.S.b.m.",
"U.T.N.v.i.9.y.>.3 = V D V D G } ,X1X| D ^ | ^ i %.uX`.D %.iXvXFXFXnXpX' K }.uX$.s ^ | ~ D ..1X,X} K D D D B - a >.a.i.G.v.N.",
"D.G.M.d.i.j.f.>.3 = B D A A D ) $X1X{ A A ^ W %.pXxXdX).pXnXFXIXLXHXbX7X).gXjXuXO.' ^ A A } ,X ._ F A A D B = 6 :.k.3.0.x.U.",
"I.n.z.i.p.4.x.>.a = B D A B V F ` %.^ B i A &.iXxXAXmXzXbXHXLXLXLXLXFXbXzXmXZXxXiX&.A r A ^ | ) D B p A D B = 3 y.1.1.x.v.N.",
"T.F.J.i.p.4.x.:.1 - p G %.&.' D A F $.*.W & X.`.pXsXlXxXZXGXKXHXHXHXGXnXxXlXsXuX-.J & X.&.' F s V $.).%.D V - 3 3.,.3.c.Z.G.",
"~.!.l.y.t.d.y.:.a = r K uXaX).V w V ).aX`.&   > $ . (.gXnXZXAXAXAXAXAXmXgX&.. % >   > `.aX).A w D ).aX'.G * = 3 >.>.9.k.S.H.",
"b.S.9.9.k.1.a.<.Y a # K uXfX).V $.-.aXgXhX0X$X@ s 4XeXjXnXmXAXMXMXMXmXcXzXeX:Xs @ $X0XhXgXaX).L D `.fX|.H # a h >.i.s.s.c.K.",
"S.x.k.<.i.4.y.5.y.y.# 6 }.aX-.D -.fXgXxXVXJX0Xr $XVXCXvXnXnXAXAXMXAXmXcXvXCXVX..r NXJXVXxXgXaX-.D ).aX`.6 * y.t.3.3.4.9.S.S.",
"G.Z.l.d.4.t.a.a.1.u.h P %.).$.D -.uXfXcXCXPXNXt ' yXVXvXcXmXMXmXmXMXmXcXzXVXwXK t BXPXPXxXfX|.&.D ' -.[ P h <.i.t.a.3.9.A.Y.",
"U.H.l.2.3.<.d.x.Z.u.5.d.< @ r D $.`.aXjXPXPXBXS o ,XuXjXnXmXAXAXAXAXmXnXzX9X| o F BXPXFXxXaX_.+.D r X i 6.d.y.v.2.p.s.z.z.E.",
"U.U.x.d.x.i.Z.m.l.x.A.n.;.a # V +.'.aXcXKXIXVXD   B 7XvXAXGXHXHXFXHXHXAXvX3Xt   ~ VXIXKXxXaX_.+.p # d :.t.Z.u.y.a.p.l.n.N.T.",
"D.b.V.c.f.1.Z.v.l.u.A.m.x.y.f - J ).pXxXFXIXVX~   . _.nXGXLXLXLXLXLXLXGXbX).    { VXIXFXxXpX(.R - 2 z.u.a.v.c.t.p.3.u.c.N.E.",
"v.K.x.6.j.f.t.x.t.x.5.b.y.0.>.Y q R |.gXnXZXhXD     3XDXLXLXLXLXLXLXLXLXDX3X    ~ hXZXZXfX'.0 q h >.v.p.x.d.m.p.t.3.x.m.G.H.",
"v.G.q.0.s.4.s.1.a.<.2.<.x.y.5.G.2 : #.|.fXxXpX*.' %.rXKXLXLXLXLXLXLXLXLXFXrX$.' *.aXgXfX|.&.+ g z.<.x.<.d.i.u.2.<.d.0.b.U.M.",
"E.E.x.0.6.k.i.5.y.u.l.<.2.i.y.u.Y > 9 X.'.fXgXzXzXzXDXKXLXLXLXLXKXLXLXLXKXDXzXlXjXkXfX`.o.9 6 g m.t.f.y.y.s.<.2.1.a.c.S.U.v.",
"U.K.D.a.3.p.1.1.u.<.x.1.y.l.:.:.7.E a O o.}.aXzXcXAXSXHXKXLXLXLXLXLXLXKXGXSXMXcXkXaX}.R O 1 G T >.<.t.d.y.c.2.a.1.i.c.z.v.I.",
"J.D.A.6.1.3.y.x.2.j.d.s.x.s.f C [ <X] # > 9 @.|.dXcXAXAXGXLXLXLXLXLXKXGXMXmXcXgX'.(.7 ; e I [ Q C Y v.Z.j.<.<.d.2.p.F.D.H.N.",
"U.v.Z.5.1.3.u.d.a.s.1.l.y.,.I [ 5X8Xg.u e # Z O._.pXjXcXZXFXHXHXHXFXFXmXcXzX|.(.o.Z w # u  .2X/.[ T 7.y.d.s.k.d.s.s.s.A.D.T.",
"M.F.j.a.3.3.b.l.y.d.y.6.P Z [ 2X8XrX<Xc j XX! 4 4 7 (.aXxXcXnXnXnXnXnXxXaX(.7 4 5 ! x j v <X8X8X/.[ C U u.s.j.i.j.l.s.A.S.H.",
"M.A.9.5.s.p.y.9.u.y.;.h D [ {.8X8X8X:Xb  XoX+XM y X 8 (.|.|.pXpXpXpX|.|.=.8 X y M OXoXz c 1XrXrX8X3X[ T x.f.y.u.A.a.6.a.G.v.",
"Q.v.h.4.i.t.d.2.y.u.f C E ^.5XrX9X5X$XXXoX#X;X;X+Xj 1 7 7 9 9 7 7 7 7 4 5 p k OX*X*X%X.Xc 2X8XrXwX5X..7.y.y.y.t.f.>.y.a.z.>X",
"S.w.s.2.a.i.1.3.g T &.`./.g.2X5X5X/...x oX=X=X-X%XoXz y 1 6 Z Q E Z Z i y n oX%X=X=X&XXXS g.5XrXwX8X/.h.T Y :.d.t.a.3.s.l.M.",
"N.S.l.p.3.y.1.3., 0 |.fX'.g.g.g.^.^.^ u .X*X-X&X*X-X@X.X( [ ^.4X/./. .( .X%X*X;X*X=X;XM Z [ 3X8XrX8X3Xg.G P p.u.i.s.4.5.c.M.",
"R.S.b.l.5.1.<.,., R |.fXaX|./.Q Q ] C u z OX%X&X-X-X%X%X+X( _ }  .] ( +X%X%X*X-X&X%XOXv H ^.5X8X8X5X{.g.G P x.l.l.i.9.5.d.S.",
"L.H.G.l.d.2.j.3.< 7 `.fXfXaX(.C p C N e j XXOX&X-X*X-X-X#Xx w w w w z #X=X=X&X*X&XoXXXs Z 3XrXrX8X8X3X^.Z P a.x.s.i.4.2.c.G.",
"M.{.q.d.j.s.6.3.2.7.+.(.`.(.W ,.Y :.a e k m OX&X-X&X-X-X%X.Xk j j z .X%X=X*X;X;X&XoXm e 9 9XbXbXbXbXbX9XE a y.x.a.2.4.a.x.S.",
"M.W.z.l.6.9.3.a.5.2.q + + , q a.s.y.h e l XXOX%X*X&X&X*X#XXXx l l XXXX#X-X&X&X;X%XoXx e 9 sXSXSXAXSXMXlXK < i.Z.f.y.k.0.z.v.",
"E.R.U.L.0.6.1.<.a.:.g g q g 2.z.s.j.f * u k n OX%X*X*XOXXXz k w w j z XXOX-X-X%XXX.Xk @ 9 sXSXSXAXAXmXsX9 < 3.x.d.i.l.l.x.I.",
"U.I.b.z.Z.6.2.<.u.2.y.s.u.d.x.S.f.d.P & r d l m XX#XOXXXx c u r r u c x XXOX%XXXx l d X 7 sXMXMXMXnXxX7X9 < d.i.s.6.Z.c.H.[.",
"B.D.Y.J.Z.5.a.<.2.a.y.m.l.Z.y.Z.d.y.P * V S v k z z z z c ! F F D D ! c z z z z k ! D < 9 '.kXnXnXxXpX(.9 , l.d.<.u.0.D.J.U.",
"U.Y.H.c.s.6.>.u.<.y.0.d.u.l.d.5.<.x.f % V F F v ! v s u s D Z F F F D s u s v c v F F 6 q =.|.fXdXpX(.R q q 2.d.>.5.a.v.D.~.",
"S.I.T.l.l.s.<.a.y.y.p.y.u.x.<.2.<.x.f & ; N G ` |  .^ p r B V V V V V r V ) } _ ^ F B P ,.Q o.@.+.+.0 q ,.9.p.x.>.3.a.x.K.v.",
"M.H.U.N.s.s.4.1.1.:.c.t.a.N.3.x.<.5.:.3 - ; G | %.$X_ D t > r t r t ; ; V `  .` ^ D p Y p.;., O O , 4 q <.A.y.1.y.p.a.Z.b.N.",
"U.T.V.N.c.9.<.3.1.i.d.1.v.m.y.d.2.<.z.:.P N ~ | .. .` G V ; & = - & = = V ^ _ ) F D p Y v.m.:.1.2.:.2.<.y.s.1.4.5.3.a.U.M.m.",
"w.I.M.C.c.A.p.i.1.f.d.u.t.v.p.t.S.<.l.u.Y p G _ | | ) ^ A = % 3 3 > > N H L ' ~ Z Z 6 U a.c.s.<.A.y.l.t.1.p.t.p.y.k.6.q.v.U.",
"I.M.U.T.R.A.c.u.p.t.p.x.d.l.t.t.F.u.u.i.T p D F ) ) ^ G A = < y.,.5 8 J J X.X.X.L 9 5 T d.x.y.y.c.y.5.i.6.s.3.s.l.x.z.v.I.C.",
"C.R.[.V.L.K.v.d.a.3.5.j.s.3.i.y.a.2.d.Z.P 6 H H L $.$.' L H C 3.c.U q 9 0 0 X.0 9 9 q 3.c.5.i.<.a.1.s.s.4.s.a.l.l.q.U.T.U.G.",
"~.].U.M.V.H.v.c.x.s.s.3.d.s.2.j.x.j.v.p.U 5 0 X.O.@.@.@.@.X.L 4.Z.5.,.9 5 5 5 5 5 T A.u.l.d.1.j.a.s.d.4.i.d.f.Z.b.S.e.].U.Y.",
"U.U.K.].Q.G.G.x.>Xd.f.s.5.s.5.4.1.j.x.u.q : o.@.#.#.#.#.#.O.R 7.i.c.4.I q q I q U ,.x.a.y.s.6.p.3.j.f.y.u.d.F.S.L.I.Y.Y.b.Y.",
"S.v.K.v.H.~.Q.U.G.M.A.k.s.6.a.y.d.9.6.6.q 5 R @.@.@.@.#.O.X.Q 7.5.y.4.<.a.4.3.3.1.t.4.3.a.s.3.y.l.z.0.w.F.s.b.N.[.S.L.Y.H.U.",
"G.S.I.E.I.v.P.P.P.T.v.!.0.x.f.F.f.0.3.a.,.U Q 8.8.8.g.8.h.8.7.Z.l.9.5.d.a.1.3.3.3.i.<.7.4.u.f.c.f.S.S.G.>XM.E.L.H.I.S.Y.Q.Y.",
"U.U.I.I.E.N.V.b.P.b.b.E.S.S.m.U.c.S.l.t.d.5.y.d.5.l.S.l.z.T.K.H.U.S.z.z.d.a.s.i.6.3.z.F.0.c.T.U.b.U.S.x.G.b.v.S.G.T.H.I.I.W.",
"U.U.V.V.W.G.S.Y.K.m.S.P.P.v.I.C.R.H.c.x.l.x.j.d.l.c.H.M.V.T.U.K.G.U.V.n.N.c.l.w.9.c.b.w.S.v.G.I.R.H.N.m.b.b.H.N.S.T.U.V.V.W.",
"P.V.E.U.E.G.S.U.z.G.v.Y.U.K.[.V.Y.L.v.M.z.D.].S.!.6.d.f.f.f.0./.9.d.F.j.j.4.s.T.z.c.b.w.U.K.[.N.Y.K.M.N.b.P.].U.{.S.N.N.C.E."
};
