/* XPM */
static char *e0af7ea8638b4872c45d72e8c7a6575cWV1fSWOrFMkAtotw[] = {
/* columns rows colors chars-per-pixel */
"61 61 141 2 ",
"   c None",
".  c #D63C00",
"X  c #D74000",
"o  c #DA4500",
"O  c #DD4B00",
"+  c #DF5100",
"@  c #E34500",
"#  c #E44C00",
"$  c #E94D00",
"%  c #F14E00",
"&  c #E15400",
"*  c #EB5200",
"=  c #E55D00",
"-  c #EB5900",
";  c #F25300",
":  c #F15C00",
">  c #E76100",
",  c #E96500",
"<  c #EA6900",
"1  c #E76609",
"2  c #E86708",
"3  c #E96B0C",
"4  c #F36500",
"5  c #F96400",
"6  c #F46B00",
"7  c #F96B00",
"8  c #FC6900",
"9  c #F86D00",
"0  c #F96D00",
"q  c #F96E00",
"w  c #F86F00",
"e  c #F96F00",
"r  c #F86E01",
"t  c #FF6D00",
"y  c #FE6E00",
"u  c #FF6F00",
"i  c #F96D00",
"p  c #F56E0A",
"a  c #EB710E",
"s  c #F77007",
"d  c #F97100",
"f  c #FA7000",
"g  c #FA7100",
"h  c #FA7200",
"j  c #FA7202",
"k  c #FC7000",
"l  c #FF7000",
"z  c #FC7300",
"x  c #FC7100",
"c  c #F6730E",
"v  c #F97308",
"b  c #E86810",
"n  c #E86911",
"m  c #E96D11",
"M  c #E96E10",
"N  c #E96D13",
"B  c #EA6F12",
"V  c #E96E14",
"C  c #E96F14",
"Z  c #E96F15",
"A  c #E96E13",
"S  c #EA7117",
"D  c #EA7216",
"F  c #EA7115",
"G  c #EA7218",
"H  c #EA7219",
"J  c #EA741C",
"K  c #EA751C",
"L  c #EB761C",
"P  c #EA771D",
"I  c #EA741F",
"U  c #EA771E",
"Y  c #EC751E",
"T  c #ED761F",
"R  c #EA741B",
"E  c #EF791F",
"W  c #F07214",
"Q  c #F07315",
"!  c #FA7715",
"~  c #FA7916",
"^  c #F0771C",
"/  c #F7791C",
"(  c #F9791A",
")  c #FB7B1E",
"_  c #FC7D1D",
"`  c #FB7D1D",
"'  c #EA7621",
"]  c #EA7821",
"[  c #EB7A21",
"{  c #EA7823",
"}  c #EB7A23",
"|  c #EA7C26",
" . c #EB7C26",
".. c #EB7D27",
"X. c #EB7E26",
"o. c #EC7E24",
"O. c #EC7D27",
"+. c #EC7E26",
"@. c #EC7E27",
"#. c #EB7B25",
"$. c #EB7E28",
"%. c #EB7F28",
"&. c #EB7F2A",
"*. c #EC7D28",
"=. c #EC7E28",
"-. c #EC7F28",
";. c #EC7F29",
":. c #EB7E28",
">. c #F17C22",
",. c #F57E21",
"<. c #F57E22",
"1. c #EC8027",
"2. c #EE8027",
"3. c #EC8027",
"4. c #ED8028",
"5. c #EC8029",
"6. c #EC802A",
"7. c #EC812A",
"8. c #ED812A",
"9. c #EC822A",
"0. c #ED832A",
"q. c #EC822B",
"w. c #EC832C",
"e. c #EC842D",
"r. c #ED842D",
"t. c #EC822B",
"y. c #F08127",
"u. c #FB8123",
"i. c #FB8224",
"p. c #F0832A",
"a. c #F0832B",
"s. c #F2832A",
"d. c #F2822B",
"f. c #F1842B",
"g. c #F0862D",
"h. c #F5842A",
"j. c #FA862A",
"k. c #FF8B2A",
"l. c #FC8A2E",
"z. c #FC8A2D",
"x. c #EE8830",
/* pixels */
"                                                                                                                          ",
"                                                                                                                          ",
"                                                                                                                          ",
"                                                                                                                          ",
"                                                        < , ,                                                             ",
"                                                    , 6 6 6 6 ~ 4.|                                                       ",
"                                                    8 , , , = N *.k.F                                                     ",
"                                                  , < , , , , C *.G ,                                                     ",
"                                                  6 , , > < = b J , ,                                                     ",
"                                                  j 2 2 < < , = , > >                                                     ",
"                  < , < < , < < < , = B w.4.*.4.+.4.4.+., , < < , , , > , , = = < O o + > O X & , , , , ,                 ",
"                , 8 4 6 6 4 < < 3 Y ' ^ y.g.p.p.g.+.} G > < < < , , , , , = , = < = @ X & O o O = # * * 4 7 4 ,           ",
"                e = = , < < < < , *.r.4.$.*.$.| 9.3.D > < < < < , < , > > > = , , , & O O O o o O X o O , > > i ,         ",
"                4 < , < , , < < < < C ' $.4.*.9.9.e.e.K > , , , , , , , , , & O O O O O o O o O O + = , , > > < <         ",
"                = , , , , < < < , < , 3 +.*.*.+.} K | e.J , , , > > , , , > , + O O o O O O O O O O = , , , < < <         ",
"                = l 4 4 i e e 7 e e e u.l.( ) p.} , 2 M b , > > , > , < , < < < , + O O O o O o O O o + , , < l <         ",
"                    & & > < < < < < < ' 1.2 3 4.>.< < > > > > > > > > , 6 d e l j e * # # # $ * * * $ # * 6 ,             ",
"                                              1.) , < > < < > , > > , < < , <                                             ",
"                                                v < < < , , , > > < < <                                                   ",
"                                                < < < < < > < > < < < , < > = , < > = , , < + O                           ",
"                      < < < , < < < , < < < < > , < < , , , > > , , , < 6 4 4 , , 6 < 6 9 j , ; 7 , , , ,                 ",
"                O + 4 7 d < < 6 < 6 < < < 6 6 , , , + O = < , , , < , > = < < < > < < < < < , , < , , 4 i                 ",
"              # * # O = , , , , < , , < < < , = , , O O O , , > , = # O & < , > < = < , , , , < < < < < Q ,               ",
"            O # O O o o > , , , < < , , < < < > , , + O O + > = + o o O & , > > < < , < < > < , < < , H p.F               ",
"            O * O o o O + , , , > , > < , , , , , , + O O + > o o O o O , , > < < < , < , = , 2 , < < U w.<.              ",
"            O & > O o o o + , , > , < < , , , , , , = O O O O o o O o = = , > , < < > < , , 2 ;.| b , ' $.<.              ",
"            o O , , > = + + < , , 6 6 j - $ * $ & - = # # # # # # # - l 5 5 7 5 6 6 6 4 4 4 , ' $.$.m U w.j.F             ",
"            # O = < , , , , < < < < < <                                   ,   , < < , , , , = 2 $.9.| | ;.j.'             ",
"            $ o + < , , > < 6                                                               m p K w.w.4.*.j.*.            ",
"          = : o = < , , < < ,             < = O o O               o X $ @ O =                 j.| $.$.$.*.h.4.            ",
"          < 7 > , < , < < < <             l < = = $ O         o $ * O O & , i <               h.{ | | 4.*.*.|             ",
"          < 6 < , , < < , < <           , 6 , , & O # O       $ O = , , , < 6 <               ' { #.$.*.*.4.*.            ",
"          < 9 < , , , < , < ,           < 9 = O O O o #     o # o o # = < > 6 ,               , ' *.*.*.| $.h.            ",
"          < 9 , , < < , < , ,             4 O o X o o O & O o o X O O o & < e                 1 >.w.| | *.w.j.            ",
"          < 6 B C , , < < Q C             # # o . . O O O # O O o O o o o , <                 ' j.4.V C x.w.j.<           ",
"          < , [ 9.C , , F j.R               O & + & < + o o + , = + O O O & <                 w.l.T = < *.w.i.2           ",
"          < , 3 4.4.F 3 $.l.G     < 9 6 4 & = , < < , O O o + < < < , , > , < 6 7 , > > ,     F ! , < , B w.<.,           ",
"          < < < 9.w.| ' $.j.C   < j < , < < = , > < = . o O > , < < < < , , , > , < , 5 ,       6 , = = , >.( ,           ",
"          < < < K 9.4.e.*.j.C   p.` , < , = < , > < = . X > < , < < , , , , > , = , , , &       e < = , , 2 p ,           ",
"          F g.+.} 9.w.4.*.l.w.  g.<.= < , , , < < , , & = = , > , , < , , , , , , , , 5         6 , , < < , 6 <           ",
"          3 y.g.4.r.9.$.$.l.4.    < 7 7 7 7 6 4 4 , < < + > > > > < 6 , 6 4 4 e 4 : , &         4 = > > , , 6 ,           ",
"          < < R [ 9.9.| | l.r.        ,   , < , = , , < < > , , , , < < < < = < & X             & , < = = , 6 >           ",
"          < , , a 9.e.9.*.l.                        6 < < < < , 4 ,                             = , , = , , 4 <           ",
"          < < , [ e.3.H *.<.                      < < , , < , < 6 >                             , = , > , , 6 <           ",
"          , < < +.w.F m x.u.        , , 6 6 9 9 e 6 < , , , , < < , , > < < < < & o             = , < < , , 6 <           ",
"          < , 2 *.I = 3 g.i.      , l < > < < < < < < > < < O + > , , , , < 6 * @ $ ; o         o = < > = , 6 ,           ",
"          < , 2 3 , > = C /       , < < , , < < < < , , < , o O , , , , , , < = O = * o         = = < > < , , ,           ",
"          < 4 , = , , > > 6         i , < , , < < & + = < + o O = , , , < < > , , , $ O         j , , , > < 6 <           ",
"          < , , , , > , > <         , i 6 < < , , & o O = = o o & , < = = , , , , 4 O         < 6 < < > > < , ,           ",
"          , 4 , , , > > = 6           , < , = , , 6 # O O + O O O # $ * * 4 i 4 < ,           , 6 < < > , 2 4 ,           ",
"          < 9 < , > = = < ,                       < , O O O O O O o X o X &                 < , , < = = < , , ,           ",
"          = 9 > = > , = , =                         # O O O O O O O                     < , 6 H H = < , = 3 ^ n           ",
"          X * , = = # o # =                         O O O O O O O O                   = 7 > N | | 2 , < B *.j.U           ",
"          O @ & , o o o - =                         # O O O O O # #                   6 > < G | $.N , F *.*.j.3           ",
"            $ o o X o O 5                           = & O O # O # O                   , , , I $.$.b U $.$.9./ <           ",
"            # o o o X & ,                           & # O + O o # =                   4 , = F w.9.} 9.$.9.r.c             ",
"            O o o o o o O                             % & = . O * >                   3 3 2 R r.$.9.w.*.r.U <             ",
"            O % O # # % o                             O 8 4 - $ O                     4.k.w.1.4.9.9.4.4.4.(               ",
"              o O o o                                   < < = O                         4.l.l.l.l.j.l.l.l.9.              ",
"                                                                                            r.4.9.9.9.                    ",
"                                                                                                                          "
};
