/* XPM */
static char *_d9f680d302e4f94b1abed867e9fc98ejerZiwy9zsSwDlXw[] = {
/* columns rows colors chars-per-pixel */
"61 61 245 2 ",
"   c #312C2C",
".  c #36322C",
"X  c #3B352E",
"o  c #3B3A2E",
"O  c #3C3935",
"+  c #473E2F",
"@  c #453E34",
"#  c #483F32",
"$  c #423E3A",
"%  c #2E4A2D",
"&  c #3C4833",
"*  c #3D5335",
"=  c #3E5B37",
"-  c #396B38",
";  c #3A7739",
":  c #464636",
">  c #4B4235",
",  c #4B443A",
"<  c #524633",
"1  c #544936",
"2  c #5A4D36",
"3  c #544B3A",
"4  c #5A4E3A",
"5  c #435435",
"6  c #475738",
"7  c #4C5B3B",
"8  c #5D523C",
"9  c #55593C",
"0  c #645337",
"q  c #63553C",
"w  c #66593E",
"e  c #6A5B3E",
"r  c #715F3F",
"t  c #47693A",
"y  c #56683D",
"u  c #4A793D",
"i  c #56743E",
"p  c #5D5640",
"a  c #615742",
"s  c #655941",
"d  c #6C5D41",
"f  c #705F42",
"g  c #4D6741",
"h  c #576842",
"j  c #4A7542",
"k  c #4C7C41",
"l  c #597644",
"z  c #537C42",
"x  c #636745",
"c  c #6F6144",
"v  c #736344",
"b  c #796644",
"n  c #766847",
"m  c #7C6946",
"M  c #756649",
"N  c #7C6C49",
"B  c #677B49",
"V  c #79784D",
"C  c #796F54",
"Z  c #787B57",
"A  c #836D46",
"S  c #836E4B",
"D  c #867549",
"F  c #84734D",
"G  c #8C734A",
"H  c #8A7C4E",
"J  c #947A4C",
"K  c #826C53",
"L  c #8B7353",
"P  c #887655",
"I  c #947B53",
"U  c #9C7E54",
"Y  c #987B5B",
"T  c #8A7D60",
"R  c #38843A",
"E  c #33953B",
"W  c #3C933E",
"Q  c #438B3E",
"!  c #3E9542",
"~  c #3B9B43",
"^  c #4D8443",
"/  c #4A8B44",
"(  c #538445",
")  c #5A8345",
"_  c #568848",
"`  c #538C4A",
"'  c #5C8B4A",
"]  c #449444",
"[  c #4A9445",
"{  c #449D45",
"}  c #489A47",
"|  c #4C954A",
" . c #4C9B4B",
".. c #559346",
"X. c #54944C",
"o. c #5B954D",
"O. c #549C4C",
"+. c #5C9B4E",
"@. c #588D52",
"#. c #569552",
"$. c #5C9553",
"%. c #559B52",
"&. c #5C9C53",
"*. c #5E9B59",
"=. c #658549",
"-. c #638C4D",
";. c #718C4C",
":. c #63944D",
">. c #6A944E",
",. c #629B4F",
"<. c #688C51",
"1. c #798954",
"2. c #7D855C",
"3. c #639452",
"4. c #6C9554",
"5. c #649C53",
"6. c #6B9C54",
"7. c #649759",
"8. c #649C59",
"9. c #6C9C59",
"0. c #729454",
"q. c #7B9554",
"w. c #729C56",
"e. c #7A9C55",
"r. c #739D59",
"t. c #799D59",
"y. c #4CA44C",
"u. c #4AA84A",
"i. c #54A34D",
"p. c #5BA44E",
"a. c #54AC4C",
"s. c #46B14A",
"d. c #51B14E",
"f. c #4EA751",
"g. c #55A452",
"h. c #5CA353",
"j. c #54AD52",
"k. c #5CAA54",
"l. c #5DA459",
"z. c #57A95A",
"x. c #5DAB5A",
"c. c #4EB252",
"v. c #5BB558",
"b. c #68A54E",
"n. c #64A354",
"m. c #6BA355",
"M. c #63AA55",
"N. c #6BAB56",
"B. c #64A35A",
"V. c #6CA45A",
"C. c #64AB5B",
"Z. c #6CAB5B",
"A. c #73A355",
"S. c #7BA355",
"D. c #73A956",
"F. c #7EA956",
"G. c #73A45B",
"H. c #7BA45B",
"J. c #73AB5B",
"K. c #7CAC5C",
"L. c #63B256",
"P. c #64B35C",
"I. c #6CB35C",
"U. c #66B95D",
"Y. c #6CB85C",
"T. c #75B65A",
"R. c #74B35C",
"E. c #7BB35D",
"W. c #74B95E",
"Q. c #66AA61",
"!. c #6CAC62",
"~. c #7AA660",
"^. c #73AC61",
"/. c #7BAD62",
"(. c #6DB362",
"). c #68B661",
"_. c #75B363",
"`. c #7CB462",
"'. c #7CBA63",
"]. c #79B867",
"[. c #858656",
"{. c #9B835B",
"}. c #829C56",
"|. c #879A5A",
" X c #849D5A",
".X c #919F59",
"XX c #A3855A",
"oX c #A7875A",
"OX c #B2915D",
"+X c #82A45C",
"@X c #8AA75A",
"#X c #84AC5D",
"$X c #93A35A",
"%X c #84B35D",
"&X c #88B55C",
"*X c #94B95E",
"=X c #848C64",
"-X c #9D8561",
";X c #8E9669",
":X c #92976C",
">X c #A58A66",
",X c #AC8E63",
"<X c #B18E61",
"1X c #AE9166",
"2X c #AC9269",
"3X c #B39465",
"4X c #B99565",
"5X c #BB9B67",
"6X c #B4966A",
"7X c #B89769",
"8X c #B6996C",
"9X c #BC9B6B",
"0X c #B69D76",
"qX c #BD9E71",
"wX c #86A861",
"eX c #84AD62",
"rX c #82B363",
"tX c #8AB465",
"yX c #85BA62",
"uX c #87B969",
"iX c #95B76D",
"pX c #BFA06E",
"aX c #BEA072",
"sX c #C29B65",
"dX c #C29D6C",
"fX c #C09F71",
"gX c #C4A16E",
"hX c #CAA36E",
"jX c #C4A372",
"kX c #CBA573",
"lX c #CDA974",
"zX c #C9A778",
"xX c #CCAA7B",
"cX c #D2A675",
"vX c #D2A976",
"bX c #D2A77A",
"nX c #D4AB7A",
"mX c #D9AD7D",
"MX c #D8B37C",
"NX c #8DC46E",
"BX c #A0C160",
"VX c #CEAE86",
"CX c #D9AE82",
"ZX c #D9B385",
"AX c #E3BC85",
/* pixels */
"/.e.N.*XV.%.i.Y.J.A.K.E.S.8.G.3.^.rX#.] ;.g.T.O.C.%.6.K.m.B.N.n.O.B.K.w.R.*X&.%.j._.m.H.R.%X6.J.9.7.`.^.| ` 4.k.R.| C.o.A.",
"J.G.M.S.3.J.w.M.Y.D.9.m.rXuXV.C.v./.*.V.q.&.I.^.] 5.6.R.M.M.E.R.m.J.J.G.n.S.5.D.4.N._.w.5.V.uXrXG.x.Y.G.8.w.0.l.^.Q.~ V.6.",
"&.:.S.w.4./.6.X.K.D.w.w.N.R.A.].M.n.o.uX#.h.l.uXB.%.O.*X#Xb.+X*X_.5.+.>.S.9.4.rXo.+.%Xn.q.m.Y.H.R.I.M.+.V./.O.h.C.uX%.#.,.",
"@.I.w.0.,.%XV.+.n.Z.n.G.rXD.Y.N.5.6. .c.l.&Xh.M.].n.o.6.w.K.&XD.B.9.&.I.q.4.5.yXp.,.n.Y.3.rXS.J.I.C.6.,.y.d.m.%Xh.N.W.#.:.",
"X.`.v.q.>.3.[ &.8.| [ 5.5.V.C.y.+.n.5.Z.&.z.uX5.^.).V.w.g.Y.D.4. Xw.,.`.M.q.>.+.] B.8.] o.n.3.!.z.O.h.5.V.Z.h.N.tX*._.P.w.",
"H.5.8.a.G.7.M.&.] f.l.' o.X.{ #.#.h.n.V.K.f.M.H.m.Z.R.p.k.x.o.m.rXyXH.$.h.g.t.$.M.X.! x.$.X.o.{  .#.%.M.B.G.G.f.V.S.m.Z.R.",
"6.yXn.X.N.i.o.@.k.].B.| K.H.O.m.&XP.y.M.3.3.E.J.5.V.eX+.~ | 3.I.Y.H.G.%X&.O.M.} 3.#.v.].] 8.+Xm.O.F./.g.i.6.&.6.E.A.5.D.eX",
"6.G.k.| K.[ X.^.!.^.V.l.$.9.D.m.#XQ l.B.V.`.A.4.d.N.Z.B.B.5.C.(.B.,.6.Z.h.#.K.E 3.].!.G.C.*.$.H.m.K.b. .B.Q.J.E.9.5.d.I.N.",
"v.:.W &.Z.V.O.G.5.m.K.G.N.y.E.%X3.! ] { r.rXb.b.l.x.&.&.n.K.R.L.m.h.k.-.W M.(.6.| eX] %X6./. .N.%XS.o.W W O.H.`.,.6.x.l.&.",
"R.P.3.X.9.9.J.C.5.V.+XR.j.p.E.0.4.4.[ 0.w.eX.XS.4.}.r.O.&.6.6.w.4.4.J.C.<.' t.4.J.n.4.D.+XU.u.I.J.0.w.o.o.w./.tX@XG.6.+X8.",
"9.I.rX$.6.6.I.5.i.(.I.y.l.J.%XeXe.eXR.1.V F D H H H D H H D H H H F H H H F D F [.V k.].k.f.V.J.%X+X+X`.J.4.6.@XD.tXA.@X! ",
"+Xn.a.s.G.R.K.k.)._.J.K.L.] O.~.K.|.q.V F {.oXOX4X4X4X4X3X4X4X4X4X4X4X4X4X4X3XoXI V 2.0.q.K.i.~ m.`.K./.N.o.6.%XN.o.n.NXx.",
"m.G.s.g. .b.,.K.W.Z.5.m.M.W h.m.[.S L S I oXOXgXhXcXlXlXlXlXlXlXcXhXhXhXhXhXhX3XU L K K V [...o.k.Y.m.J.).y.,.N.3.y._.Y.&.",
"k.3.I.} X.o.,.5.n.B.M.n.3.O.p.V S G oX<X3X5XgXgXgXsX5XpXpX5X5X5X7X7XdXsXsXhXvXhX9X4X<XU K N =.+.c.M.3.t.J.y.w.K.3.B.C.5.n.",
"o.X.L.y.o.| 5.4. .+.J.l.| ,.Z L U XXOXhXlXjXjXpX5X4X4X3X6X3X3X3X3X3X4X5X4X5XgXlXvXcXdXOXXXL V 0.9.6.J.n.O.&.m.,.O.O.#.9.S.",
"o.7.+Xp.Z.h.X.u.L.m.n.3.1.[.F I oX5XhXhXhXpX6X3XsXgXhXhXlXlXlXlXlXkXdXdXsX4X3XgXxXvXcXcX4XU L K 1.q._.n. .5.,.A.5.}.rXrXS.",
"R.O.4.,.yXe.$XN.I.^.&.` V L {.OX5XhXcXlXdX6X6X9XgXhXfX9X9X9X9XqX9XaXjXjXjXdX5X5XgXjXcXvXcXsXoXL F 1.G.!.x.j.6.m.6.D.D.uX`.",
"&XN.-.I.m.+XrXeXA.n.V.<.C >X1XdXhXcXlXhX9X1XdXhXaX9X6X2X>X>X{.>X2X2X6XaXlXcXhXsX3XpXhXlXvXvXsXoXY Z 5.B.).P.n.,.p.,.6.m.I.",
"`.uX&.uX&.K.`.M.+.M.B.0.P 2X9XhXlXxXjX9X9XhXkXdX8X6X8X7X9X9X9X6X7X5X8X8X7XgXlXgXpX9XgXkXvXvXhX5X-X2.~. .h.V.6.I.N.3.6.| J.",
"G.Z.K.J.#.m.i.| *.6.3.@.P 6XhXvXxXxXaX2XdXcXcXdX6X2X9X9XdXdXdXdX9XpX3X3X1X9XvXvXjX5X5XjXlXvXvXgX>X1.L.a.&.t.eXP.[ g.!.k.5.",
"-.H.w.5.} O.M.Z.^.m.[ 4.T 2XfXbXvXlXaX3X9XcXhXgXqX8X9X9XdXdXdXdXdX9X4X2X2XfXnXnXlX9X3XlXnXnXMXlX>XZ Z.L.i.8./.h.k.uXc.~.H.",
"k.$X:.9.B.h.h.3.J.p.f.r.T 0XfXcXlXjX9X6XgXvXkXkXqX8X6X6X7X6X6X9X7X6X6X6X8XjXvXnXlX9X8XzXxXMXMXlX>XT wXR.u.&.G.m.(.tXg.9.G.",
"`.0.5.C.Z.G. .4.G._.).5.P 8XjXkXkXkXdX9XjXkXlXcXkXqX9X6X6X1X,X6X6X9X6XqXjXxXvXvXkX9XpXlXnXmXAXMX2X2.G.J.B.7.0.&.h.K.3.9.] ",
"G.&XG.O.,.m.$.p.g.V.!.$.C ,XhXlXzXfXgXjX9X6XjXxXnXvXlX9X3X2X2X6X9XfXjXlXvXnXvXgX9XgXlXvXvXvXAXZX2X2.5.C.B.t.wX%.:.G.`.h.~ ",
"o.*X&.Z.6.,.6.v.Z.r.*.3.c -X6XjXvXhXhXkXfXqXfXfXjXbXbXkXfXjXfXkXlXcXnXnXvXkXkXjXjXlXvXvXMXZXZXxX-XZ J.l.+.S.tXZ.h.V.M.O.Z.",
"n.K.o.eX(.5.6.K.~.G.R.4.s C -XaXvXcXdXhXbXbXqX6X8XqXkXcXnXnXnXnXnXnXnXvXjXaXpXlXMXmXcXkXMXZXaX>XP B D.f.l.m.G.`.!.5.>.5.L.",
"M.&.G.n.L.I.6.w.5.C._.3.p M P ,XhXvXvXcXcXcXdXhXxXfX8X6X6X6X6X3X6X8XqXjXzXxXkXnXmXmXCXZXxX0X2XI M l b.p.D.V.n.wXZ.o.q.E.~ ",
"&.e.J.y.o.N.E.w.M.N.J.4.p s c I OXgXcXfXfXkXcXmXCXbX8X3X,X2X6X,X6X8X9XjXxXMXmXnXnXvXxXVX0X{.P M a h 5.A.#XK.H.w.h.l.o._.| ",
"r.}.D.Z.] C.%XD.Z.N.m.m.8 s v n P oX6X5XfXbXcXcXcXcXcXcXcXbXmXbXmXCXbXCXCXCXCXCXnXzXqX8X-XF M s 8 h m.E.K.V.H.i.p./.X.+.} ",
"A.N.Q.!.%.M.I.!.V.8.h.o.8 s d v N F {.{.6X9XdXhXcXmXCXCXmXCXCXCXZXZXZXCXmXlXkXqX8X,X-XP S M d s 8 h V.m.6.V.6.3.h.yX%.o.S.",
"5.U.%.V.C.6.w.A.V.%.g.` 9 d v v n v n N I -XoXsXfXbXbXbXCXbXbXvXVXZXVXlXjX5XOXU L S v d d f f s 8 h 5.%.h.U.^.4.8.eXO.D.@X",
"v.h.g.Q.I.G.~.A.6.+.X.B 9 e e n n c c v S I I U U <X,X<X3X3X,X3X1X1X,XoX{.{.G N b f f s f f d s 8 h -.|  .C.yXN.4.,.h.W.A.",
"_.4.I.`.J.&.).Y.m.4.=.y 0 e f f v w e r n F S A A G J J J XXJ J J G G A A v r e e d q q s f f s 8 4 l -.] 3.H.P.J.~ C.m.,.",
"^.H.n.&X6.5.+.I.R.w.x w s r f e w 8 0 r m F m n n A G J J J J J G G A A N b v v c s s q s d f f s 3 # l #.$.>.l.R.&.g.5.A.",
"m.6.m.e.4.^.w.3.J.<.w r f b b e 2 2 0 v m A N n v b A G G J G G G A A A n b v v d s q 0 q q d f v s : h 8.~.3.h.!._.] n.6.",
"#.n.e.w.3.rXm.o.-.x 9 v m A b e < 2 w v A F n v v r b A G G G G G A b r v v v c d e q 8 4 q q v n c 2 7 ) V.&.m.l.`.C.o.+.",
"X._.Z.0.:.S.&.) p 3 0 f S b w 2 < 1 0 b m F v c r r v b A D G A A r r e e e c e d s a q 4 4 s d M M s 8 9 ( o.:.6.h.].h.3.",
"6.J.v.4.9.-.z y 9 a f b b e 2 < < < w m A A v d d e e v b A A A r r 0 0 0 0 w c f f d a 4 3 p a c M M c 8 9 z ` t.:.V.I.J.",
"H.V.5.y.A.l h 1 q d f b e 2 < # < 2 r A G A v e d w e e b A A A r 0 0 0 0 0 e r f f f s p , $ 3 p f M c s 8 9 k -.' :.D.E.",
"4.rXM.X.N.9 4 < 2 0 e q 2 2 < # > q v A A m v d d w 0 r r b b b r r 0 0 9 0 e r b f f f p $ $ , p p p d v d 8 3 h ( / ,.#X",
"M.6.i.#.J.> > > < < < < < > # # < r A A b v f d s q q d b b b v f d 0 0 4 4 e d f v v v s # $ $ p O p p a a q , 5 k ] ..M.",
"L.,.[ %.Z.. + : # # # > > X . # 0 m A A b f s s q 0 0 f b m m b f f s 4 , 4 e a f v b f s 2 p O O O O $ $ p $ X 5 ) ( ) $.",
"J.).G.X.9.5 7 7 6 7 y 7 t &   < r A A b f q q 8 4 4 4 s b m m b f f p # , , p 4 s f v v v s $ $ : 7 p t 5 g 7 9 h -.l ;.*.",
"t.N.E.O.w.( ' k / o.` Q ^ 5 X w b S A v e q q 2 3 3 3 s b N N b f e p p $ $ O p q w f b b v q , y l ) :._ g t =.Q =.) >.{ ",
"K.4.s.s.V.N.w.M.I.V.w.H.X.% : n S A b f e a 4 3 # @ , q b N F N f 0 p $ : O $ p 8 8 e v n b d 3 : 7 t i Q - u =.l ; ( m.C.",
"p.V.d.&.] +.o.D.J.M.h.o.t 9 w b b b d w q 4 2 # $ @ > 0 c F F N f a 3 $ , O O O > < 8 e v b v e q : 6 y u ; u ..i / 5.X.o.",
"h.%.U.{ o.X.5.3.O.&.3.l < w r r w e w 0 2 3 , @ X X > 3 s N F N f a $ $ O O X   . < 1 2 8 s c v e 8 < 5 5 ; ) =.u ( O.9.N.",
"o.o.N.i.5. .,.5.g.,.l 9 8 e w w e e q 3 # @ @ X 5 & : 4 x n N n d 2 , $ O X 5 % & X > 1 8 8 q w e w 2 > % t ) u ^ _ 7.G.S.",
",.9.}.,.'.m.3.u.R.V.6 8 q q 1 2 2 8 3 # X X . 5 y g & 1 w s c M s < , @ X * l t t % X + > 1 , 2 w q 2 , . u ( ) :.}.yXNXG.",
"'.O.' n.&X}.*X%XJ.V.: > # > @ : # > @ O & 6 t u t i t 1 4 8 c c 8 , @ & t u ) y B t : . @ # @ @ > : @ @ o j _ z ` m.6.&XW.",
"yXE.3._.#.#X_.K.6.%.t : * * * 6 5 5 5 * = t u u ' ( ^ 6 , 8 w s 4 @ @ O t o.t ;./ l t * 5 5 5 5 * 6 5 5 g ( ( ..i.o.6.#.N.",
"^.uXV.uX&.D.!. .i.m.^ j z u k Q <.R ; z l ^ ( ^ r. .V.g : 8 w 8 , X . & j :.u ) / ; k ^ ; l u k ; ' ' R ^ ) <.).G.3.V. .J.",
"0.5.E.6.o.h.} o.V.9.' / A.#Xo.` p.d.%.o.@XC.R g.Q.I.5.- 5 8 s 3 + . : 6 i k ` +.W @.9.<./ ` %Xm...o.a.a.o.0.wXx.~ Q.).C.$.",
"o.+X4.5. .%.D.J./.h.] Z.W.D.A.n.q.E.d.#.(.3.c.iXv.n.H.V.j 8 p # X % 5 y i X.{ h.R.G.`.} O.R.R.D.m.4.H.I.y.l.!.+.).iXs.r.+X",
"I.$Xo.V.J.B. .+.m.M.z.C.D.A.m.E.t.rXi.] t.A.(.`.n.4.&.G.G.7 @ . o t z B ` V.^.&.} 4.D.k.x.N.D.4.R.K.wXJ.} #.H.G.!.K.&.4.%.",
"eX$.m.M.C.G.o.V.V.`.U.a.G.J.Q.Y.m.Z.^.9.t.$.] G.w.V.[ o.K.0.l - ; ..4._ N.M.V.G.| /.n.].c.B.K.G.).N.m.Z.^.r.4.| ..K.6.V.W ",
"&.BXG.| :.n.:.a.y.8.B.B.#.+.O.].5.n.n.6.iXB.9.6.yXh. .n.w.K.tXG.n.eXA.*X*.} ,.h.3.s.%.9.C.&.5.[ C.^.n.n.n.H.tXl.9.G.yXy.O.",
"+.*X .].G.:.6.I./.t.h.l.t.}.X.,.@XQ.u.6.+XuXj.B.O.O.G.J.A.+XtXK.m.H.b.&X%.uX4.,.A.I.~.9.k.*. X6.X.e.K.z.O.w.eX`.i.V.} #.^.",
"Z.&.3.+XY.M.0.H.t.J.rXD.y.`.#Xm.#X{ C.V.&.E.].n.q.A.d.E Z.T.%X~.O.M.Z.5.9.#Xv.6.w.K.t.J.tXO.M.eXD.F.b.i.C.B.n.].].4.q.N.s.",
"n.n.^.} k.R.N.4.i.v.!.B.I._.x.y.N.m.n.#Xn.|.n.&.o.'.O.C.v.L.A.9.C.d.3.n.^.~ I.R.6.4.u.).9.v.R._.g.p.N.n.A.K.6.;Xh.+.3.yXW ",
"*.|.D.p.| n.yXA.Z.D.K.W.N.i.{ $.o.M.@X'.K.m.&.C.o.n.B.[ ] O.<.Z =X:X:X=X2.2.=X:X:X[.;X:X;XZ h u t Z 2.2.Z Z Z =X=X7 ( N.@."
};
