/* XPM */
static char *_29203f8f85f44def034e973b288d344XQcOod3r4RPUD1TM[] = {
/* columns rows colors chars-per-pixel */
"61 61 123 2 ",
"   c None",
".  c #6FA308",
"X  c #73A607",
"o  c #75A807",
"O  c #73A608",
"+  c #76A909",
"@  c #7BAC0A",
"#  c #7EB10A",
"$  c #80AF0B",
"%  c #83B30B",
"&  c #89B60D",
"*  c #85B90B",
"=  c #8DBB0D",
"-  c #93BD0F",
";  c #95BF10",
":  c #8EC10D",
">  c #95C20E",
",  c #9BC40D",
"<  c #98C80E",
"1  c #97C010",
"2  c #9DC511",
"3  c #9FC911",
"4  c #9DC51B",
"5  c #A0C70C",
"6  c #A2CC0D",
"7  c #A5D10D",
"8  c #A9D40E",
"9  c #A0C712",
"0  c #A2CA12",
"q  c #A1C71A",
"w  c #A3C91F",
"e  c #A4C91F",
"r  c #A3C91B",
"t  c #A6D013",
"y  c #A6D113",
"u  c #A7D113",
"i  c #A6D212",
"p  c #A7D212",
"a  c #A7D312",
"s  c #A7D014",
"d  c #A6D112",
"f  c #A8D313",
"g  c #A9D413",
"h  c #AAD413",
"j  c #A8D014",
"k  c #AAD314",
"l  c #ABD514",
"z  c #A9D417",
"x  c #ACD515",
"c  c #ACD614",
"v  c #A9D413",
"b  c #ADD913",
"n  c #ADD814",
"m  c #AFD915",
"M  c #AEDA14",
"N  c #ADD914",
"B  c #A8D119",
"V  c #A3C921",
"C  c #A4C920",
"Z  c #A7CE20",
"A  c #A4C924",
"S  c #A5CB24",
"D  c #A6CB26",
"F  c #A6CA27",
"G  c #A7CC26",
"H  c #A3C922",
"J  c #A8CC20",
"K  c #A4C928",
"L  c #A6CA2C",
"P  c #A4C928",
"I  c #AACD28",
"U  c #A9CE2C",
"Y  c #AACD2F",
"T  c #A9CD2C",
"R  c #A9D023",
"E  c #ABD423",
"W  c #ABD027",
"Q  c #ACD424",
"!  c #AED42F",
"~  c #B1D826",
"^  c #B4DA2E",
"/  c #ABCE31",
"(  c #A9CC32",
")  c #ABCE33",
"_  c #ACCE33",
"`  c #ACCF33",
"'  c #ACCE35",
"]  c #ADCF35",
"[  c #AECF34",
"{  c #ACCF36",
"}  c #ADCF36",
"|  c #ACCE34",
" . c #AED033",
".. c #AED035",
"X. c #AFD037",
"o. c #AED037",
"O. c #AFD038",
"+. c #AFD138",
"@. c #AFD038",
"#. c #B0D234",
"$. c #B0D137",
"%. c #B0D236",
"&. c #B1D237",
"*. c #B7DC30",
"=. c #B0D138",
"-. c #B0D039",
";. c #B0D139",
":. c #B1D139",
">. c #B0D239",
",. c #B2D239",
"<. c #B1D13A",
"1. c #B1D23A",
"2. c #B2D23B",
"3. c #B5D63B",
"4. c #B3D33C",
"5. c #B4D33D",
"6. c #B1D23A",
"7. c #B7DC38",
"8. c #B8DC38",
"9. c #B9DD3A",
"0. c #BEE03E",
"q. c #BEE040",
"w. c #BFE040",
/* pixels */
"                                                                                                                          ",
"                                                                                                                          ",
"                                                                                                                          ",
"                                                                                                                          ",
"                                                                                                                          ",
"                                                                                                                          ",
"                                                                                                                          ",
"                    0 & + % 0 0 0 < 0 d s 3 9 2 2 2 0 2 2 9 2 > D 2.          0 , 1 2 2 2 3 2 0 2 2                       ",
"                  2 M 0 $ & 2 2 2 2 2 2 , , 2 3 X.Z 6 3 0 0 n 7 Q w.*.8 0  .8.k d 0 s 0 0 2 2 j 0 f n 2                   ",
"                0 n 2 0 2 2 9 2 2 2 2 , 4 D 2 q 2.T , , < 9 2 , 4 K 0 , , , 4 2 2 2 0 2 0 $ @ 0 0 0 2 0                   ",
"                2 0 2 2 1 9 9 2 2 9 0 2 q 2.( V O._ 2 V V 2 2 2 2 2 2 1 1 2 > 1 2 - & 2 2 @ @ ; 0 0 9 f                   ",
"                3 2 2 9 2 2 9 9 0 2 0 , , V 2.2.' X.X.2.2.4 , 3 9 2 2 2 < 1 2 > 2 = O & 1 % O ; 2 2 2 c 2                 ",
"                > 0 9 0 0 9 9 9 9 , q _ X.( X.X.( 2.2.L q 0 2 2 2 9 9 9 0 2 2 1 2 2 # + @ @ @ @ @ @ + ; 0                 ",
"                % 2 0 0 0 9 9 9 2 0 9 D ' 2.O.2.( X.O._ e 5 0 0 0 0 9 9 2 9 2 - - - & + O + @ + @ % % 1 2                 ",
"                @ - 0 0 0 9 9 0 9 0 0 , 0 I O.O.X.| X.5.5.I 9 0 0 1 1 0 2 2 9 & . O @ + @ @ @ @ @ = 0 n 0                 ",
"                + < 0 0 0 j 0 9 2 2 0 2 , D 2.T X.| R ~  .' B 2 1 2 0 2 0 9 2 1 & @ @ + @ @ @ @ @ @ > 2                   ",
"                  = f c f < t h k d h h 2 $.2.5 #.3.w         0 2 9 9 2 9 2 1 2 2 > & O @ @ @ @ @ + @                     ",
"                      1 & X #           0 W e 6 e $.          3 c 9 2 9 9 2 2 0                                           ",
"                                        0 0 , 0 5 V             9 0 9 0 9 0 0 0                                           ",
"                                        3 2 2 0 d 5             0 k 9 0 0 0 2 2                                           ",
"                                        0 0 0 2 0 9             9 d 2 9 0 0 0 0                                           ",
"                                        3 0 2 2 0 f 0           2 0 0 0 1 > 3 2                                           ",
"                          @ 3 0 2 2 0 3 2 2 2 9 9 0 k - + + = f 0 2 - $ @ - 2 9 f f f 0 2 0 0 0                           ",
"                    @ % * * > f d d d 0 2 2 0 3 9 9 9 - @ # $ 0 2 $ + O @ 1 2 2 2 2 2 1 2 0 f 8 0 3                       ",
"                  # > + + # O & 2 , 2 1 2 3 2 2 9 0 9 1 @ + @ ; @ @ @ + = 9 2 9 0 9 2 2 0 0 2 V q 7                       ",
"                  @ > 1 & # . @ 1 2 2 9 9 2 - - ; ; 2 2 $ O @ @ + @ + @ 2 2 9 9 2 2 , 2 0 0 V O.2.Q ,                     ",
"                  + & 0 2 1 ; ; 2 2 9 2 2 2 & O @ @ @ @ $ + @ @ @ @ @ 2 0 9 r 9 2 2 9 9 9 2 , L X.%.V                     ",
"                @ # # 2 3 2 2 0 0 2 2 1 1 2 1 @ @ + + + @ @ @ @ @ + & & & % & 1 9 2 0 9 , , , , ( X.7.                    ",
"                = % o 1 2 0 2 3 2 , 2 1 2 3 2 > @ o o @ + @ @ @ @ @ @ @ + + @ - 0 d 0 2 W T T ( ( 2.9.                    ",
"                2 2 & 1 0 2 2 2 2 0 t h h 0 2 2 2 & + @ @ + @ @ @ @ + + @ & - c 2 1 2 6 ( 3.4.4.2.X.7.                    ",
"                9 0 0 2 1 2 2 2 , 2 2 2 2 1 3 2 3 2 % +         @ @ & 1 , 2 2         > s T O.O.X.X.0.                    ",
"                0 0 2 2 1 1 3 2           2 s 3 ; @ %           $ * @ & 1 d 2           5 < 4 4 T X.9.                    ",
"                0 0 0 2 2 2 f 9           s 0 - @ @ @           @ % @ + + 3 3             d = 2 ( ' 9.(                   ",
"                0 2 ; 1 2 9 f 2         0 f - @ % @ @           # % + o O % 2             0 < T ' ' R P                   ",
"                h 0 @ @ , 0 f $         9 9 @ @ # % %           2 f * @ . O ;           1 , 2 ( 2.D 6 q                   ",
"                d 0 - + @ 2 = @       9 k 2 - = , 0               0 2 1 ; 1 0 2     2 2 3 2 3 V G , f 2                   ",
"                k 0 1 @ @ @ % @       , 0 2 2 0 0 1               0 2 2 2 2 3 0 h h k 0 2 0 2 , 5 9 0 0                   ",
"                0 ; 2 & @ @ # @       : 0 2 2 2 d 3               2 3 1 < 2 2 1 2 2 2 1 % 1 2 0 2 2 s 2                   ",
"              0 3 o @ & # @ @ @     @ 0 0 0 0 2 0                 2 M 2 2 0 2 0 2 2 0 = O 1 0 0 9 9 k 0                   ",
"              0 h & @ + @ @ % %     2 0 2 2 9 f 2                   3 n 2 2 0 0 1 % 1 & O ; 1 ; ; 0 d 0                   ",
"              2 h 0 2 = @ @ % @     > 3 3 2 0 d                       3 2 d k d 0 # = * @ # @ . - 9 0 2                   ",
"              0 n 0 9 - @ $ % @     + 0 0 d 0                               2 3 0 & +   @ # @ & 0 1 7 9                   ",
"              0 n 0 2 @ @ 1 % %                                                         @ % & 2 0 2 f 2                   ",
"              0 f 0 ; + & 0 @ & 2                                                       @ % @ X % 1 f 3                   ",
"                f 9 1 ; 2 2 1 * 2                                                       X # & & & 2 d 2                   ",
"                f 2 2 9 3 9 3 s 2                                                       @ o & , 2 2 t >                   ",
"                c 2 2 0 2 2 2 0 2                                                     1 2 + % 2 , 1 0 >                   ",
"                h 2 2 2 9 2 1 2 0 9 0 0 0                                     3 2 3 t 0 0 & ; 0 2 2 d 2                   ",
"                d 2 2 2 9 0 0 9 9 9 f 0 m f 0 0 0 2 > 2 $ + @ @ @ # @ # @ * d c s 3 3 2 2 2 2 , , 2 d 1                   ",
"                * 2 0 2 9 2 ; 9 9 9 2 9 9 2 , 0 & @ @ @ @ + @ $ @ @ @ & 1 2 0 0 0 2 2 2 2 2 2 ( I , k 9                   ",
"                + @ 2 0 = + O & 0 9 9 0 0 2 2 0 - @ + + @ @ @ @ # @ % @ ; 0 1 2 > 2 2 1 2 , D 5.3.0 8 9                   ",
"                + @ & & + + @ 1 9 2 2 9 0 2 0 0 0 - & @ @ @ @ @ @ @ + O @ & 0 9 2 2 2 2 2 , K ' 2.r Q                     ",
"                  @ # @ @ @ 1 3 2 0 2 2 2 2 2 2 9 0 0 2 # @ + @ + + + + @ + & 2 2 2 > 2 2 , T 1.2.Q X.                    ",
"                    @ + X % > > 3 0 d f k s d n m c c > # * : % # * n 0 = : * 0 d a d d f 8 ^ w.0.O.                      ",
"                              o @ @ & 2 2 3 0 2 0   2 # + %   @     2 0 0                                                 ",
"                                                                                                                          ",
"                                                                                                                          ",
"                                                                                                                          ",
"                                                                                                                          ",
"                                                                                                                          ",
"                                                                                                                          "
};
